<svg width="19" height="19" viewBox="0 0 19 19" fill="none" xmlns="http://www.w3.org/2000/svg">
<g clip-path="url(#clip0_1_35)">
<path opacity="1" d="M15.834 1.58301H3.16732C2.29648 1.58301 1.58398 2.29551 1.58398 3.16634V15.833C1.58398 16.7038 2.29648 17.4163 3.16732 17.4163H15.834C16.7048 17.4163 17.4173 16.7038 17.4173 15.833V3.16634C17.4173 2.29551 16.7048 1.58301 15.834 1.58301ZM6.33398 15.833H3.95898C3.52357 15.833 3.16732 15.4768 3.16732 15.0413V12.6663H6.33398V15.833ZM6.33398 11.083H3.16732V7.91634H6.33398V11.083ZM6.33398 6.33301H3.16732V3.95801C3.16732 3.52259 3.52357 3.16634 3.95898 3.16634H6.33398V6.33301ZM11.084 15.833H7.91732V12.6663H11.084V15.833ZM11.084 11.083H7.91732V7.91634H11.084V11.083ZM11.084 6.33301H7.91732V3.16634H11.084V6.33301ZM15.0423 15.833H12.6673V12.6663H15.834V15.0413C15.834 15.4768 15.4777 15.833 15.0423 15.833ZM15.834 11.083H12.6673V7.91634H15.834V11.083ZM15.834 6.33301H12.6673V3.16634H15.0423C15.4777 3.16634 15.834 3.52259 15.834 3.95801V6.33301Z" fill="white"/>
</g>
<defs>
<clipPath id="clip0_1_35">
<rect width="19" height="19" fill="white"/>
</clipPath>
</defs>
</svg>
