<svg width="19" height="19" viewBox="0 0 19 19" fill="none" xmlns="http://www.w3.org/2000/svg">
<g clip-path="url(#clip0_1_38)">
<path fill-rule="evenodd" clip-rule="evenodd" d="M14.25 15.0417H10.2923V10.2913H15.0417V14.25C15.0417 14.6854 14.6854 15.0417 14.25 15.0417ZM15.0417 8.70801H10.2923V3.95833H14.25C14.6854 3.95833 15.0417 4.31458 15.0417 4.75V8.70801ZM8.70898 8.70801V3.95833H4.75C4.31458 3.95833 3.95833 4.31458 3.95833 4.75V8.70801H8.70898ZM3.95833 10.2913V14.25C3.95833 14.6854 4.31458 15.0417 4.75 15.0417H8.70898V10.2913H3.95833ZM15.0417 2.375H3.95833C3.0875 2.375 2.375 3.0875 2.375 3.95833V15.0417C2.375 15.9125 3.0875 16.625 3.95833 16.625H15.0417C15.9125 16.625 16.625 15.9125 16.625 15.0417V3.95833C16.625 3.0875 15.9125 2.375 15.0417 2.375Z" fill="white"/>
</g>
<defs>
<clipPath id="clip0_1_38">
<rect width="19" height="19" fill="white"/>
</clipPath>
</defs>
</svg>
