<svg id="レイヤー_1" data-name="レイヤー 1" xmlns="http://www.w3.org/2000/svg" xmlns:xlink="http://www.w3.org/1999/xlink" viewBox="174.25 366.59 931.48 290.8"><defs><style>.cls-1{fill:url(#タンザナイト);}.cls-2{fill:url(#タンザナイト-2);}.cls-3{fill:#460076;}.cls-4{fill:#f9c0de;}.cls-5{fill:#fff;}.cls-6{fill:url(#名称未設定グラデーション_42);}.cls-7{fill:url(#名称未設定グラデーション_42-2);}.cls-8{fill:url(#名称未設定グラデーション_42-3);}.cls-9{fill:url(#名称未設定グラデーション_42-4);}.cls-10{fill:url(#名称未設定グラデーション_42-5);}.cls-11{fill:url(#名称未設定グラデーション_42-6);}</style><linearGradient id="タンザナイト" x1="232.38" y1="526.29" x2="542.95" y2="526.29" gradientUnits="userSpaceOnUse"><stop offset="0" stop-color="#c2b1d5"></stop><stop offset="0.16" stop-color="#ccbddc"></stop><stop offset="0.45" stop-color="#e5deee"></stop><stop offset="0.5" stop-color="#eae5f2"></stop><stop offset="0.54" stop-color="#d6d1e8"></stop><stop offset="0.6" stop-color="#bcb9db"></stop><stop offset="0.66" stop-color="#a9a6d1"></stop><stop offset="0.74" stop-color="#9b99ca"></stop><stop offset="0.83" stop-color="#9291c6"></stop><stop offset="1" stop-color="#908fc5"></stop></linearGradient><linearGradient id="タンザナイト-2" x1="348.88" y1="581.57" x2="519" y2="426.05" xlink:href="#タンザナイト"></linearGradient><linearGradient id="名称未設定グラデーション_42" x1="660.65" y1="606.83" x2="802.99" y2="464.49" gradientUnits="userSpaceOnUse"><stop offset="0" stop-color="#8516c6"></stop><stop offset="0.17" stop-color="#8617c4"></stop><stop offset="0.25" stop-color="#8719bd"></stop><stop offset="0.31" stop-color="#8b1db0"></stop><stop offset="0.36" stop-color="#8f229e"></stop><stop offset="0.39" stop-color="#93278f"></stop><stop offset="0.6" stop-color="#b64298"></stop><stop offset="1" stop-color="#ff7bac"></stop></linearGradient><linearGradient id="名称未設定グラデーション_42-2" x1="946.01" y1="609.13" x2="1095.55" y2="459.59" xlink:href="#名称未設定グラデーション_42"></linearGradient><linearGradient id="名称未設定グラデーション_42-3" x1="915.46" y1="558.28" x2="970.47" y2="503.27" xlink:href="#名称未設定グラデーション_42"></linearGradient><linearGradient id="名称未設定グラデーション_42-4" x1="455.23" y1="601.47" x2="643.99" y2="412.71" xlink:href="#名称未設定グラデーション_42"></linearGradient><linearGradient id="名称未設定グラデーション_42-5" x1="793.94" y1="612.11" x2="965.79" y2="440.27" xlink:href="#名称未設定グラデーション_42"></linearGradient><linearGradient id="名称未設定グラデーション_42-6" x1="546.64" y1="554.1" x2="663.39" y2="554.1" xlink:href="#名称未設定グラデーション_42"></linearGradient></defs><path class="cls-1" d="M443.23,603.17c-28.51,20-60.35,35.65-94.79,43.71a179.14,179.14,0,0,1-26.33,4,129.82,129.82,0,0,1-27.06-.56c-2.27-.33-4.54-.6-6.81-1.13-1.13-.25-2.26-.46-3.38-.73l-3.37-.93c-2.25-.55-4.46-1.46-6.68-2.2-2.17-.94-4.38-1.75-6.49-2.9a61,61,0,0,1-12-7.93,56.62,56.62,0,0,1-9.67-10.89,54.53,54.53,0,0,1-6.21-13,57.68,57.68,0,0,1-2.55-13.87c-.7-9.31.86-18.31,3.12-26.87,4.69-17.15,13.34-32.4,23.11-46.46a269.52,269.52,0,0,1,33.55-38.62A337.36,337.36,0,0,1,337,452.47c27.76-19.49,58.29-35.42,91.35-44.75,16.53-4.46,33.79-7.48,51.52-6.19,8.81.72,17.81,2.3,26.35,6a61.32,61.32,0,0,1,12.26,7,56.06,56.06,0,0,1,10.25,10.17,54.65,54.65,0,0,1,10.49,26.82,81.08,81.08,0,0,1-1.81,27.84,136.49,136.49,0,0,1-8.8,25.56,183.58,183.58,0,0,1-12.69,23.34,251.81,251.81,0,0,1-32.83,41A291.08,291.08,0,0,1,443.23,603.17Zm-12.82-18.23a303.9,303.9,0,0,0,37.37-31.06,261.34,261.34,0,0,0,31.56-36.72c9.18-13.13,17.12-27.23,21.46-42.07a67.37,67.37,0,0,0,3-22.21,53.65,53.65,0,0,0-.53-5.4l-.57-2.62-.28-1.31-.42-1.26a38.05,38.05,0,0,0-4.45-9.62,42.9,42.9,0,0,0-7.11-8.09,48.42,48.42,0,0,0-9.27-6.14,69.51,69.51,0,0,0-22.34-6.61,117.33,117.33,0,0,0-24.24-.5,165,165,0,0,0-24.38,3.73c-32.29,7.51-62.88,22.53-90.2,41.69s-51.69,43-69.64,70.86a162.46,162.46,0,0,0-11.71,21.71,115.14,115.14,0,0,0-7.63,23c-.4,1.95-.82,3.9-1,5.87s-.45,3.91-.58,5.86-.06,3.89-.11,5.82c.19,1.9.15,3.84.51,5.69a45.56,45.56,0,0,0,2.74,10.76,42,42,0,0,0,5.28,9.38,42.6,42.6,0,0,0,7.62,7.44,45.73,45.73,0,0,0,9.43,5.29c6.71,2.92,14.29,4.24,21.92,4.85,15.4,1.14,31.35-1.58,46.77-5.76C374.51,618.79,403.81,603.61,430.41,584.94Z"></path><path class="cls-2" d="M406.36,438.08c-7.31,6.13-15.75,13.89-21.45,19.21,0,0-3.68,3.59-4.56,4.28.58-1,3.72-5.06,3.72-5.06,4.64-6.32,11.38-15.66,16.65-23.69,3.92-6,9.74-13.84,6.78-23.7-2.14-7.17-8.82-15.75-13.41-21-1.23-1.41-2.31-2.56-3.11-3.39,4.2,3.52,16.18,12.62,25.26,14.53,9.86,2.08,17-4.6,22.4-9.17,7.3-6.13,15.74-13.89,21.45-19.21,0,0,3.67-3.6,4.56-4.29-.58,1-3.73,5.06-3.73,5.06-4.63,6.32-11.37,15.67-16.64,23.7-3.92,6-9.74,13.84-6.79,23.7,2.71,9,12.63,20.34,16.48,24.33-4.24-3.54-16.17-12.58-25.22-14.49C418.89,426.83,411.79,433.51,406.36,438.08Zm46.14,30.51c5.12,1.08,11.86,6.19,14.26,8.19-2.18-2.25-7.78-8.64-9.32-13.76-1.67-5.57,1.62-10,3.84-13.4,3-4.54,6.79-9.82,9.41-13.4,0,0,1.78-2.31,2.11-2.86-.5.39-2.58,2.42-2.58,2.42-3.23,3-8,7.4-12.13,10.87-3.07,2.58-7.09,6.36-12.66,5.19-5.14-1.09-11.91-6.23-14.29-8.22.46.47,1.07,1.12,1.76,1.92,2.6,3,6.37,7.81,7.59,11.86,1.67,5.58-1.62,10-3.84,13.4-3,4.54-6.79,9.83-9.41,13.4,0,0-1.78,2.31-2.11,2.86.5-.39,2.58-2.42,2.58-2.42,3.23-3,8-7.4,12.13-10.86C442.91,471.19,446.93,467.42,452.5,468.59ZM437.07,644.66c3.52.75,8.17,4.27,9.82,5.65-1.49-1.55-5.36-6-6.42-9.48-1.15-3.85,1.12-6.92,2.65-9.24,2.05-3.13,4.68-6.77,6.48-9.24,0,0,1.23-1.59,1.46-2-.35.27-1.78,1.67-1.78,1.67-2.22,2.08-5.51,5.1-8.36,7.49-2.12,1.78-4.89,4.38-8.73,3.57-3.54-.74-8.21-4.29-9.85-5.66.32.32.74.77,1.21,1.32,1.8,2,4.4,5.39,5.23,8.18,1.15,3.84-1.11,6.91-2.64,9.24-2.06,3.13-4.68,6.77-6.49,9.23,0,0-1.22,1.6-1.45,2,.34-.27,1.78-1.67,1.78-1.67,2.22-2.08,5.51-5.1,8.36-7.49C430.45,646.46,433.22,643.85,437.07,644.66Z"></path><path class="cls-3" d="M750.75,465.5,690.92,602.44a3.1,3.1,0,0,1-2.85,1.86H664.85A3.11,3.11,0,0,1,662,600l60.65-138.8H747.9A3.11,3.11,0,0,1,750.75,465.5Zm46.12-4.35H771.62S722.06,575,720,579.89c-3.14,7.31-4.3,14-2.87,18.05A8.94,8.94,0,0,0,726,604.3h49.79a3.11,3.11,0,0,0,3-2.26l9.28-32.59H754.3l45.42-104A3.11,3.11,0,0,0,796.87,461.15Z"></path><path class="cls-3" d="M1105.61,470.65c-.72-6-6-9.42-12.65-9.42h-106L974,491.76a3.11,3.11,0,0,0,2.87,4.32h74.4L948.46,598.91a3.11,3.11,0,0,0,2.2,5.31h31.07a3.14,3.14,0,0,0,2.18-.89l49.05-48.2,23.65,47.37a3.1,3.1,0,0,0,2.78,1.72H1084a3.12,3.12,0,0,0,2.79-4.5l-32.76-66,42.72-41.33C1102.9,486.41,1106.45,477.66,1105.61,470.65Z"></path><path class="cls-3" d="M977.28,558.72l15.51-15.24H964.53l17.75-21a3.11,3.11,0,0,0-2.37-5.12H927.35L923,527.51a3.11,3.11,0,0,0,2.86,4.34h13.81l-17.61,21.8a3.11,3.11,0,0,0,2.41,5.07Z"></path><path class="cls-3" d="M545.67,507.2l-14.42,33h24.23a3.11,3.11,0,0,1,2.86,4.32l-12.07,28.59a3.11,3.11,0,0,1-2.87,1.9H516l-11.88,27.32a3.11,3.11,0,0,1-2.85,1.87H478.06a3.11,3.11,0,0,1-2.85-4.35L486,575H435.54a3.11,3.11,0,0,1-2.87-4.31l12.88-30.5h55.7l14.41-33H464.53a3.11,3.11,0,0,1-2.88-4.29l12.49-30.56h56.73l13.66-31.29h25.25a3.1,3.1,0,0,1,2.85,4.35l-11.75,26.94H701a3.1,3.1,0,0,1,2.86,4.32l-12.19,28.64a3.1,3.1,0,0,1-2.86,1.89Zm41.4-66.14-8.24,19a3.11,3.11,0,0,0,2.86,4.34H596a3.09,3.09,0,0,0,2.85-1.87l9.31-21.48Zm28.84,0-8.24,19a3.11,3.11,0,0,0,2.85,4.34h14.29a3.12,3.12,0,0,0,2.86-1.87l7.42-17.13a3.11,3.11,0,0,0-2.85-4.35Z"></path><path class="cls-3" d="M886.64,461.23H861.38L814.2,569.36H797.48l-8.32,30.94a3.1,3.1,0,0,0,3,3.92h30.13c3.27,0,6.18-1.28,9.72-7.51,2.26-4,47.62-108.42,57.49-131.14A3.11,3.11,0,0,0,886.64,461.23Zm45,11.09H906.27s-40.34,95-46.25,107.42c-4.72,9.93-4,14.9-2.9,18.12a8.94,8.94,0,0,0,8.94,6.36h48a3.11,3.11,0,0,0,3-2.26l8.15-28.64a3.11,3.11,0,0,0-3-4H894.64l39.85-92.71A3.1,3.1,0,0,0,931.63,472.32Zm8.18-31.26-9.32,21.48a3.09,3.09,0,0,1-2.85,1.87H913.35a3.1,3.1,0,0,1-2.85-4.34l8.24-19Zm27,4.35-7.43,17.13a3.09,3.09,0,0,1-2.85,1.87H942.19a3.1,3.1,0,0,1-2.85-4.34l8.24-19h16.33A3.11,3.11,0,0,1,966.76,445.41Z"></path><path class="cls-3" d="M671.82,544.44c-1.12-3-4.22-4.22-9.22-4.22H627.06l8-18.36a3.12,3.12,0,0,0-2.85-4.36H607l-9.91,22.72H570.24l-13,30.49a3.1,3.1,0,0,0,2.86,4.32h21.71L571,599.86a3.11,3.11,0,0,0,2.85,4.36h23.22a3.11,3.11,0,0,0,2.85-1.87L611.87,575h19.8l-6.62,14.3a3.11,3.11,0,0,0,2.82,4.42h23a3.12,3.12,0,0,0,2.84-1.83l14.87-33C671.7,552.05,672.9,547.38,671.82,544.44Z"></path><path class="cls-3" d="M746.3,452.7a3,3,0,0,0-2.46-1.33h-30a2.93,2.93,0,0,0-2.69,1.76L648.59,596.28a2.95,2.95,0,0,0,2.69,4.12h30a2.92,2.92,0,0,0,2.69-1.76l62.55-143.16A2.93,2.93,0,0,0,746.3,452.7Z"></path><path class="cls-3" d="M781.63,560.83a2.93,2.93,0,0,0-2.34-1.16H750L795.5,455.48a2.93,2.93,0,0,0-2.69-4.11h-30a2.93,2.93,0,0,0-2.69,1.76c-.5,1.14-49.58,113.94-51.65,118.75-3.56,8.29-4.61,15.46-3,20.19a11.86,11.86,0,0,0,11.71,8.33h52.14a3,3,0,0,0,2.83-2.13l9.93-34.86A3,3,0,0,0,781.63,560.83Z"></path><path class="cls-3" d="M1099.71,463.54c-.86-7.18-7.12-12-15.57-12h-106a3,3,0,0,0-2.71,1.8l-14.72,34.85a2.93,2.93,0,0,0,2.7,4.08h72L932.26,595.38a2.94,2.94,0,0,0,2.08,5h39.84a2.91,2.91,0,0,0,2.06-.85l47.08-46.25,22.7,45.47a2.94,2.94,0,0,0,2.63,1.63h31.58a2.94,2.94,0,0,0,2.63-4.25l-34-68.53L1090,487.77C1096.76,481.14,1100.66,471.41,1099.71,463.54Z"></path><path class="cls-3" d="M980.45,509.36a2.93,2.93,0,0,0-2.66-1.7H918.54a2.94,2.94,0,0,0-2.7,1.78l-6.23,14.49a2.94,2.94,0,0,0,2.7,4.1h12.38l-17.84,22.08a2.95,2.95,0,0,0,2.29,4.79h57a3,3,0,0,0,2.06-.85l15.5-15.23a2.94,2.94,0,0,0-2.06-5H962l18-21.29A2.93,2.93,0,0,0,980.45,509.36Z"></path><path class="cls-3" d="M553.8,531.84a3,3,0,0,0-2.45-1.32H526.93l11.84-27.14H682a2.91,2.91,0,0,0,2.7-1.79l14.84-34.85a2.94,2.94,0,0,0-2.7-4.09H556.55l11.86-27.17a2.94,2.94,0,0,0-2.69-4.12h-30a3,3,0,0,0-2.69,1.77l-12.88,29.52H465.33a2.94,2.94,0,0,0-2.72,1.83l-14.24,34.85a2.9,2.9,0,0,0,.28,2.75,2.93,2.93,0,0,0,2.43,1.3h51.28l-11.85,27.14H436.73a3,3,0,0,0-2.71,1.8l-14.69,34.81a2.93,2.93,0,0,0,2.7,4.08h50.68L461.8,596.29a2.94,2.94,0,0,0,2.7,4.11h30a2.94,2.94,0,0,0,2.69-1.77l11.92-27.42h27.53a2.94,2.94,0,0,0,2.71-1.79l14.7-34.82A2.94,2.94,0,0,0,553.8,531.84Z"></path><path class="cls-3" d="M594.52,459.27A2.92,2.92,0,0,0,597,460.6H618a3,3,0,0,0,2.7-1.78l10.12-23.35a2.94,2.94,0,0,0-2.7-4.11H607.1a3,3,0,0,0-2.7,1.77l-10.12,23.36A2.9,2.9,0,0,0,594.52,459.27Z"></path><path class="cls-3" d="M565.68,459.27a2.94,2.94,0,0,0,2.46,1.33H589.2a3,3,0,0,0,2.7-1.78L602,435.47a2.94,2.94,0,0,0-2.69-4.11H578.26a3,3,0,0,0-2.7,1.77l-10.12,23.36A3,3,0,0,0,565.68,459.27Z"></path><path class="cls-3" d="M926.18,459.27a3,3,0,0,0,2.46,1.33h21.07a2.93,2.93,0,0,0,2.69-1.78l10.13-23.35a2.94,2.94,0,0,0-2.7-4.11H938.76a2.93,2.93,0,0,0-2.69,1.77l-10.13,23.36A3,3,0,0,0,926.18,459.27Z"></path><path class="cls-3" d="M899.8,460.6h21.07a2.93,2.93,0,0,0,2.69-1.78l10.13-23.35a2.94,2.94,0,0,0-2.7-4.11H909.93a3,3,0,0,0-2.7,1.77L897.1,456.49a2.94,2.94,0,0,0,2.7,4.11Z"></path><path class="cls-3" d="M917.54,559.67H890.29l40-92.95a2.94,2.94,0,0,0-2.7-4.1H897.45a2.92,2.92,0,0,0-2.7,1.79c-.41.95-40.38,95.08-46.2,107.31-5.18,10.9-4.33,16.6-3,20.35a11.86,11.86,0,0,0,11.71,8.33h50.38a2.93,2.93,0,0,0,2.82-2.14l9.92-34.85a3,3,0,0,0-.48-2.58A2.93,2.93,0,0,0,917.54,559.67Z"></path><path class="cls-3" d="M885,452.86a2.92,2.92,0,0,0-2.45-1.33h-30a2.93,2.93,0,0,0-2.69,1.77L803.46,559.67h-14.8a2.94,2.94,0,0,0-2.84,2.17l-9.37,34.86a2.94,2.94,0,0,0,2.84,3.7h34.19c5.08,0,8.64-2.61,12.28-9,2.57-4.61,57.18-130.4,59.5-135.75A2.9,2.9,0,0,0,885,452.86Z"></path><path class="cls-3" d="M665.76,536.67h0c-2.26-6.15-9.57-6.15-12-6.15h-31l8.12-18.6a2.94,2.94,0,0,0-2.7-4.11h-30a3,3,0,0,0-2.7,1.76l-9.14,20.95h-24.9a2.94,2.94,0,0,0-2.7,1.79l-14.79,34.82a2.94,2.94,0,0,0,2.71,4.08h21.92l-10.95,25.07a3,3,0,0,0,.24,2.79,2.94,2.94,0,0,0,2.46,1.33h30a3,3,0,0,0,2.7-1.76l12-27.43h13.28l-6.73,14.55a2.94,2.94,0,0,0,2.66,4.17h29.88a2.93,2.93,0,0,0,2.67-1.73l15.7-34.78C666.1,545.31,667.1,540.31,665.76,536.67Z"></path><path class="cls-3" d="M272.63,546.63,303,478.33H288.39l-24.31,54.73c-3.91,8.8-9.43,13.2-17.39,13.88l-1.39.12H230.79c-1.48,0-4.57,0-3.19-6.51l4.63-21.7-4.87-.3-12.85,28.92a1,1,0,0,1-.94.62H202.28a1,1,0,0,1-.95-1.46L211.82,523l-4.44-1.31L196.21,539c-3.59,5.46-7.43,8-12.05,8h-3a1,1,0,0,1-.94-1.46l5.37-12.09c2.24-.35,4.1-2.67,5.5-4.7l8.48-13.88h15.86l4.21-9.49H201.19a1,1,0,0,1-.95-1.46L205,493.35h20l5.13-11.55h-20.5a1,1,0,0,1-.95-1.45l4.27-9.61h7.76l.28-11.05h13.33a1,1,0,0,1,1,1.06l-.26,10H249l9.91-11.05h11.37a1,1,0,0,1,.78,1.72l-8.26,9.33h5.3a1,1,0,0,1,.94,1.45l-4,9a1,1,0,0,1-.95.61H243.69l-5.13,11.55H257a1,1,0,0,1,.94,1.45l-4.45,10a1,1,0,0,1-.95.62H233.19L229,514.93h15.27a1,1,0,0,1,1,1.28L242.34,528c-1.14,4.81,1,5.52,2.4,5.52a6.73,6.73,0,0,0,6.36-4.11L291,439.65h26.56a10.14,10.14,0,0,0,8.58-4H338.9a1,1,0,0,1,.94,1.46L338,441.35c-2,4.46-6.12,10.39-19.1,10.39H300.21l-6.67,15h31a1,1,0,0,1,.95,1.46l-4.23,9.51a1,1,0,0,1-.94.61h-2.93l-30.71,69.14a1,1,0,0,1-.95.62H273.57A1,1,0,0,1,272.63,546.63ZM222.84,450.8l4.27-9.61h18.62l2.23-5h17l-2.23,5H281.2a1,1,0,0,1,.95,1.46l-4,9a1,1,0,0,1-1,.62H223.79A1,1,0,0,1,222.84,450.8Zm52.39,151.41L280,591.58h46.63l3.53-8h-39a1,1,0,0,1-.95-1.46l6.72-15.11h-6L296,555.48h6.52c1.55,0,3.94-.58,6.45-3.32l5.37-5.8h17l-5.28,5.52h18.14l5.53-12.44H308.18a1,1,0,0,1-.94-1.46l20.36-45.83H428.45a1,1,0,0,1,.95,1.46l-15.68,35.31c-2,4.51-6.13,10.52-18.64,10.52h-28.3l-5.53,12.44h40.67a1,1,0,0,1,.94,1.46l-4.22,9.51a1,1,0,0,1-.95.61H356.11l-3.82,8.59h39.13a1,1,0,0,1,.94,1.46L388.14,583a1,1,0,0,1-.95.61h-40l-3.54,8h43.63a1,1,0,0,1,.94,1.46l-4.45,10a1,1,0,0,1-.94.61H276.18A1,1,0,0,1,275.23,602.21Zm38.69-38.07a13.74,13.74,0,0,1-8.45,2.92l-1.33,5h31.12l3.82-8.59H314.82Zm14.32-36.28h62.33a10.11,10.11,0,0,0,8.53-4l2.66-3.57H331.61Zm7.37-16.57H405l3.35-7.56H339Z"></path><path class="cls-3" d="M284,542.51l30.6-68.88h2.64a1.46,1.46,0,0,0,1.34-.87l5.15-11.58a1.46,1.46,0,0,0-1.35-2.06H292L297.34,447h17.71c13.84,0,18.29-6.43,20.44-11.27l2.52-5.68a1.41,1.41,0,0,0-.11-1.39,1.46,1.46,0,0,0-1.23-.67H322.31a1.49,1.49,0,0,0-1.18.59,8.7,8.7,0,0,1-7.4,3.39H287.17a1.47,1.47,0,0,0-1.34.87l-39.89,89.79a5.29,5.29,0,0,1-5,3.24,1.14,1.14,0,0,1-.94-.33c-.15-.19-.6-1,0-3.37l3.22-13.1a1.47,1.47,0,0,0-1.43-1.82H227.41l2.91-6.55h19.09a1.46,1.46,0,0,0,1.34-.88l5.37-12.09a1.44,1.44,0,0,0-.11-1.39,1.46,1.46,0,0,0-1.23-.67H237l3.82-8.61h20.12a1.47,1.47,0,0,0,1.34-.87l4.91-11.07a1.44,1.44,0,0,0-.11-1.39,1.46,1.46,0,0,0-1.23-.67h-3.63l7.62-8.61a1.44,1.44,0,0,0,.24-1.57,1.46,1.46,0,0,0-1.33-.87H255.07a1.48,1.48,0,0,0-1.09.49L244.5,463.1H232.79l.24-9.54a1.51,1.51,0,0,0-.41-1.07,1.49,1.49,0,0,0-1.05-.44h-14.4a1.47,1.47,0,0,0-1.46,1.43l-.25,9.62h-6.33a1.47,1.47,0,0,0-1.34.87L202.88,475a1.44,1.44,0,0,0,.11,1.39,1.46,1.46,0,0,0,1.23.67h19.83l-3.82,8.61H201.14a1.47,1.47,0,0,0-1.34.87l-5.37,12.09a1.48,1.48,0,0,0,.11,1.4,1.46,1.46,0,0,0,1.23.67h17.78l-2.91,6.55h-14.9a1.45,1.45,0,0,0-1.25.7L186,521.81c-1.11,1.62-2.78,3.81-4.5,4.08a1.43,1.43,0,0,0-1.12.85l-6,13.55a1.47,1.47,0,0,0,1.34,2.07h4.6c5.16,0,9.38-2.76,13.28-8.69l10.58-16.42,1.78.53-10.46,23.54a1.47,1.47,0,0,0,1.34,2.07h13.56a1.47,1.47,0,0,0,1.34-.88l12.71-28.6,2.15.13-4.28,20c-.67,3.16-.45,5.37.68,6.76a4.76,4.76,0,0,0,3.95,1.52h14.64l1.38-.12c8.55-.72,14.46-5.41,18.61-14.74l23.93-53.86h11.36l-30.07,67.69a1.47,1.47,0,0,0,1.34,2.07h14.45A1.49,1.49,0,0,0,284,542.51Z"></path><path class="cls-3" d="M218.37,447.56h55.69a1.47,1.47,0,0,0,1.34-.88l4.92-11.06a1.48,1.48,0,0,0-.11-1.4,1.46,1.46,0,0,0-1.23-.67H261.2l1.31-2.94a1.47,1.47,0,0,0-1.34-2.07h-17a1.45,1.45,0,0,0-1.34.88L241,433.55H223.29a1.46,1.46,0,0,0-1.34.87L217,445.49a1.47,1.47,0,0,0,1.34,2.07Z"></path><path class="cls-3" d="M427.46,485.18a1.46,1.46,0,0,0-1.23-.67H323.78a1.45,1.45,0,0,0-1.34.88l-21,47.29a1.47,1.47,0,0,0,1.34,2.06h40.9l-4.22,9.5H325.69l2.91-3a1.47,1.47,0,0,0-1.06-2.49h-17a1.48,1.48,0,0,0-1.08.47l-5.37,5.8c-2.15,2.36-4.11,2.85-5.37,2.85h-6.51a1.47,1.47,0,0,0-1.35.87l-5.14,11.58a1.47,1.47,0,0,0,1.34,2.07h3.78l-6.45,14.5a1.48,1.48,0,0,0,1.35,2.07H324l-2.23,5H276.14a1.46,1.46,0,0,0-1.34.87l-5.38,12.09a1.47,1.47,0,0,0,1.35,2.07H379.64a1.46,1.46,0,0,0,1.34-.87L386.35,586a1.43,1.43,0,0,0-.11-1.4,1.46,1.46,0,0,0-1.23-.67H342.06l2.22-5h39.77a1.47,1.47,0,0,0,1.34-.87l5.14-11.58a1.47,1.47,0,0,0-1.34-2.07H350.73l2.51-5.65h41.31a1.47,1.47,0,0,0,1.34-.87L401,546.31a1.46,1.46,0,0,0-.11-1.4,1.48,1.48,0,0,0-1.23-.67h-40l4.22-9.5h27.35c14.91,0,18.73-8.58,20-11.4l16.33-36.76A1.48,1.48,0,0,0,427.46,485.18ZM302.23,564.41l.56-2.09a15.18,15.18,0,0,0,8.19-3.18l.51-.38H333l-2.51,5.65ZM402.31,499l-2.05,4.62H334.05L336.1,499ZM395,515.6l-.91,1.22a8.69,8.69,0,0,1-7.35,3.4H326.69l2.05-4.62Z"></path><path class="cls-4" d="M268.16,541.92l31-69.76H284.57l-24.31,54.73c-3.91,8.8-9.43,13.2-17.39,13.88l-1.39.12H227c-1.48,0-4.57,0-3.19-6.51l4.63-21.7-4.87-.3-13.12,29.54H196.86L208,516.84l-4.44-1.31-11.17,17.34c-3.59,5.46-7.43,8-12,8h-4.6l6-13.55c2.24-.35,4.1-2.67,5.5-4.7l8.48-13.88H211.6l4.21-9.49h-20l5.37-12.09h20l5.13-11.55H204.22l4.91-11.06h7.76l.28-11.05h14.39l-.28,11.05h13.88l9.91-11.05h13.68L259,464.57h6.89l-4.91,11.06H239.87l-5.13,11.55h20l-5.37,12.09h-20l-4.22,9.49h16.59l-3.22,13.1c-1.14,4.81,1,5.52,2.4,5.52a6.73,6.73,0,0,0,6.36-4.11l39.9-89.79h26.55a10.12,10.12,0,0,0,8.58-4h14.36l-2.52,5.68c-2,4.46-6.12,10.39-19.1,10.39H296.39l-6.67,15h32.62l-5.14,11.58h-3.6l-31,69.76Zm-49.79-95.83L223.29,435h18.62l2.23-5h17l-2.23,5h20l-4.92,11.07Zm52.4,151.41,5.37-12.09h46.63l3.53-7.95H285.71l7.36-16.57h-6l5.15-11.58h6.51c1.55,0,3.94-.58,6.45-3.32l5.37-5.8h17l-5.28,5.52H340.4l5.53-12.44H302.77l21-47.29H426.23L409.9,522.75c-2,4.51-6.13,10.52-18.64,10.52H363l-5.53,12.44h42.26l-5.14,11.58H352.29l-3.82,8.59h40.72l-5.14,11.58H343.33l-3.54,7.95H385l-5.37,12.09ZM310.1,558a13.73,13.73,0,0,1-8.44,2.92l-1.34,5h31.12l3.82-8.59H311Zm14.32-36.28h62.33a10.11,10.11,0,0,0,8.53-4l2.66-3.57H327.79Zm7.37-16.57h69.43l3.35-7.56H335.15Z"></path><path class="cls-4" d="M548.28,649.18H532.62l2.38-8.86h6l-.92,3.46h3.7l1.21-4.53-7.55-7.15,3.05-11.4h15.29l-2.27,8.47h-5.42l.81-3H545l-1,3.73,7.59,7.13Zm18.09-16.78h5.12l3.14-11.7h6L573,649.18h-6l3-11.39h-5.13l-3,11.39h-6l7.64-28.48h6Zm25.46-3-5.28,19.74h-6l5.29-19.74Zm2.35-8.74-1.88,7h-6l1.88-7Zm14.76,16.35,4.39-16.35H619l-7.63,28.48h-5.91L604,632.83l-4.38,16.35H594l7.63-28.48h5.92Zm25.79,12.13H619.07l2.38-8.86h6l-.92,3.46h3.7l1.21-4.53-7.55-7.15,3-11.4h15.28l-2.26,8.47H634.5l.81-3h-3.9l-1,3.73L638,637ZM650,620.7h13.82l-1.45,5.41h-7.92l-1.47,5.5h7.52l-1.42,5.32h-7.45l-1.83,6.85h8l-1.45,5.4h-14Zm25.09,8.74-5.29,19.74h-6l5.29-19.74Zm2.34-8.74-1.88,7h-6l1.88-7Zm24.63,23.08,1.17-4.39H700.8l1.36-5.06h8.33l-4,14.85h-17l7.63-28.48h16l-1.46,5.41h-10l-4.73,17.67Zm18.16,5.4h-6l6.42-24,5.8-4.51h12.45l-7.63,28.48h-6l2.51-9.36h-5.08Zm9-14.77,2.22-8.3h-5.08l-2.22,8.3Zm9.46,14.77,7.63-28.48h6l-6.18,23.08h8.35l-1.45,5.4ZM774,620.7h6.12l-11.41,28.48h-9.46L763,620.7h6.23l-3.5,21.88Zm12.64,0h13.83L799,626.11h-7.92l-1.48,5.5h7.53l-1.43,5.32h-7.44l-1.84,6.85h8l-1.45,5.4H779Zm24.93,28.48-.79-10.3h-1.58l-2.76,10.3h-6L807,624.71l5.41-4h12.19l-4.84,18.1h-3.24l1,10.38Zm3.66-15.64,2-7.43h-4.6l-2,7.43Zm24.22,15.64H823.77l2.38-8.86h6l-.92,3.46h3.7l1.21-4.53-7.55-7.15,3.05-11.4h15.29l-2.27,8.47H839.2l.81-3h-3.9l-1,3.73L842.7,637Zm15.26-28.48h13.83l-1.45,5.41h-7.92l-1.48,5.5h7.53l-1.43,5.32h-7.44l-1.84,6.85h8l-1.45,5.4h-14Z"></path><path class="cls-5" d="M745.07,453.5a1.48,1.48,0,0,0-1.23-.66h-30a1.45,1.45,0,0,0-1.34.88L649.94,596.87a1.46,1.46,0,0,0,.11,1.39,1.48,1.48,0,0,0,1.23.67h30a1.49,1.49,0,0,0,1.35-.88l62.54-143.16A1.46,1.46,0,0,0,745.07,453.5Z"></path><path class="cls-5" d="M780.46,561.72a1.46,1.46,0,0,0-1.17-.58H747.73l46.43-106.25a1.49,1.49,0,0,0-.12-1.39,1.47,1.47,0,0,0-1.23-.66h-30a1.45,1.45,0,0,0-1.34.88c-.5,1.14-49.58,113.93-51.65,118.74-3.42,7.95-4.45,14.74-2.91,19.12a10.45,10.45,0,0,0,10.32,7.35h52.14a1.47,1.47,0,0,0,1.41-1.07L780.7,563A1.45,1.45,0,0,0,780.46,561.72Z"></path><path class="cls-5" d="M1098.25,463.71c-.78-6.5-6.32-10.71-14.11-10.71h-106a1.49,1.49,0,0,0-1.36.9L962,488.75a1.49,1.49,0,0,0,.13,1.39,1.46,1.46,0,0,0,1.22.65h75.55L933.3,596.42a1.47,1.47,0,0,0,1,2.51h39.84a1.49,1.49,0,0,0,1-.42l48.51-47.67,23.61,47.28a1.47,1.47,0,0,0,1.31.81h31.58a1.47,1.47,0,0,0,1.32-2.12L1047,527.31l42-40.59C1095.43,480.4,1099.15,471.15,1098.25,463.71Z"></path><path class="cls-5" d="M979.12,510a1.46,1.46,0,0,0-1.33-.85H918.54a1.46,1.46,0,0,0-1.35.89L911,524.51a1.48,1.48,0,0,0,1.35,2h15.46L908,551a1.47,1.47,0,0,0,1.14,2.4h57a1.49,1.49,0,0,0,1-.42l15.5-15.24a1.47,1.47,0,0,0-1-2.52H958.88l20-23.71A1.46,1.46,0,0,0,979.12,510Z"></path><path class="cls-5" d="M566.91,458.46a1.46,1.46,0,0,0,1.23.67H589.2a1.46,1.46,0,0,0,1.35-.89l10.12-23.35a1.44,1.44,0,0,0-.12-1.39,1.45,1.45,0,0,0-1.22-.67H578.26a1.46,1.46,0,0,0-1.35.89l-10.12,23.35A1.46,1.46,0,0,0,566.91,458.46Z"></path><path class="cls-5" d="M552.57,532.65a1.47,1.47,0,0,0-1.22-.66H524.68l13.13-30.08H682a1.46,1.46,0,0,0,1.35-.89l14.84-34.86a1.47,1.47,0,0,0-1.35-2H554.31l12.76-29.23a1.49,1.49,0,0,0-.12-1.39,1.46,1.46,0,0,0-1.23-.67h-30a1.47,1.47,0,0,0-1.34.88L521.1,464.12H465.33A1.47,1.47,0,0,0,464,465l-14.24,34.86a1.43,1.43,0,0,0,.14,1.37,1.45,1.45,0,0,0,1.21.65H504.6L491.47,532H436.73a1.46,1.46,0,0,0-1.35.9l-14.7,34.82a1.47,1.47,0,0,0,1.35,2H475l-11.8,27.12a1.47,1.47,0,0,0,1.35,2.06h30a1.46,1.46,0,0,0,1.34-.89l12.31-28.29h28.49a1.49,1.49,0,0,0,1.36-.9L552.7,534A1.47,1.47,0,0,0,552.57,532.65Z"></path><path class="cls-5" d="M595.75,458.46a1.45,1.45,0,0,0,1.22.67H618a1.46,1.46,0,0,0,1.35-.89l10.12-23.35a1.48,1.48,0,0,0-1.35-2.06H607.1a1.46,1.46,0,0,0-1.35.89l-10.13,23.35A1.46,1.46,0,0,0,595.75,458.46Z"></path><path class="cls-5" d="M917.54,561.14H888.05l40.84-95a1.47,1.47,0,0,0-1.35-2.05H897.45a1.46,1.46,0,0,0-1.35.89c-.4.95-40.39,95.11-46.22,107.37-5,10.42-4.18,15.75-3,19.23a10.45,10.45,0,0,0,10.32,7.35h50.38a1.48,1.48,0,0,0,1.41-1.07L919,563a1.48,1.48,0,0,0-.24-1.29A1.46,1.46,0,0,0,917.54,561.14Z"></path><path class="cls-5" d="M899.8,459.13h21.07a1.49,1.49,0,0,0,1.35-.89l10.12-23.35a1.48,1.48,0,0,0-1.35-2.06H909.93a1.46,1.46,0,0,0-1.35.89l-10.13,23.35a1.49,1.49,0,0,0,.12,1.39A1.47,1.47,0,0,0,899.8,459.13Z"></path><path class="cls-5" d="M883.8,453.67a1.47,1.47,0,0,0-1.23-.67h-30a1.48,1.48,0,0,0-1.35.88l-46.8,107.26H788.66a1.47,1.47,0,0,0-1.42,1.08l-9.37,34.86a1.48,1.48,0,0,0,.25,1.27,1.46,1.46,0,0,0,1.17.58h34.19c4.48,0,7.66-2.39,11-8.26,2.54-4.54,57.11-130.26,59.44-135.61A1.49,1.49,0,0,0,883.8,453.67Z"></path><path class="cls-5" d="M927.41,458.46a1.47,1.47,0,0,0,1.23.67h21.07a1.49,1.49,0,0,0,1.35-.89l10.12-23.35a1.49,1.49,0,0,0-.12-1.39,1.47,1.47,0,0,0-1.23-.67H938.76a1.46,1.46,0,0,0-1.34.89l-10.13,23.35A1.46,1.46,0,0,0,927.41,458.46Z"></path><path class="cls-5" d="M664.38,537.18h0c-1.71-4.65-6.86-5.19-10.59-5.19h-33.3l9-20.66a1.46,1.46,0,0,0-.12-1.39,1.45,1.45,0,0,0-1.23-.66h-30a1.46,1.46,0,0,0-1.35.88L587.28,532H561.42a1.46,1.46,0,0,0-1.35.9L545.29,567.7a1.46,1.46,0,0,0,.12,1.39,1.5,1.5,0,0,0,1.23.66H570.8L559,596.87a1.48,1.48,0,0,0,1.35,2.06h30a1.47,1.47,0,0,0,1.35-.88L604,569.75h16.55l-7.7,16.62a1.47,1.47,0,0,0,1.33,2.09h29.88a1.46,1.46,0,0,0,1.33-.86l15.7-34.79C664.59,545.09,665.57,540.42,664.38,537.18Z"></path><path class="cls-6" d="M743.84,454.3,681.29,597.46h-30L713.83,454.3Zm49,0h-30S713.25,568.18,711.16,573c-3.15,7.32-4.31,14-2.88,18.06a9,9,0,0,0,8.94,6.36h52.14l9.93-34.85h-33.8Z"></path><path class="cls-7" d="M1096.79,463.89c-.71-6-6-9.42-12.65-9.42h-106l-14.73,34.85h79.09L934.34,597.46h39.84l50-49.08,24.51,49.08h31.58l-35-70.46L1088,485.67C1094.09,479.66,1097.64,470.9,1096.79,463.89Z"></path><polygon class="cls-8" points="966.12 551.96 981.62 536.72 955.72 536.72 977.79 510.6 918.54 510.6 912.31 525.09 930.84 525.09 909.14 551.96 966.12 551.96"></polygon><path class="cls-9" d="M536.85,500.44l-14.41,33h28.91l-14.7,34.82H507.2l-12.69,29.18h-30l12.69-29.18H422l14.7-34.82h55.7l14.42-33H451.08l14.25-34.85h56.73l13.65-31.29h30l-13.66,31.29H696.87L682,500.44Zm41.41-66.14-10.12,23.36H589.2l10.13-23.36Zm28.84,0L597,457.66H618l10.12-23.36Z"></path><path class="cls-10" d="M882.57,454.47h-30L805.39,562.61H788.66l-9.37,34.85h34.19c3.27,0,6.17-1.27,9.72-7.51C825.73,585.42,882.57,454.47,882.57,454.47Zm45,11.09H897.45s-40.34,95-46.24,107.42c-4.73,9.94-4,14.9-2.91,18.12a9,9,0,0,0,8.94,6.36h50.38l9.92-34.85H885.82ZM931,434.3l-10.12,23.36H899.8l10.13-23.36Zm28.84,0-10.12,23.36H928.64l10.12-23.36Z"></path><path class="cls-11" d="M663,537.69c-1.12-3.05-4.22-4.23-9.22-4.23H618.25l9.91-22.72h-30l-9.92,22.72H561.42l-14.78,34.82H573l-12.73,29.18h30l12.74-29.18h19.8L614.19,587h29.88l15.69-34.78C662.89,545.29,664.08,540.62,663,537.69Z"></path></svg>