<svg width="244" height="244" viewBox="0 0 244 244" fill="none" xmlns="http://www.w3.org/2000/svg">
<path fill-rule="evenodd" clip-rule="evenodd" d="M130.949 41.7446C120.536 41.7446 109.65 52.6623 104.814 58.7392L90.631 57.1925C75.0489 57.4612 47.7987 76.8044 41.6196 120.058C40.0126 131.307 51.2421 136.586 62.3062 140.61C76.3772 145.728 100.052 147.998 109.858 147.998C119.178 147.998 131.895 139.869 135.786 119.805C136.2 117.669 136.73 115.519 137.566 113.511C151.1 81.0191 164.918 70.7496 171.077 67.6265C171.627 67.3476 171.455 66.0068 170.842 65.9399L157.807 64.5183C157.743 63.0894 157.192 54.2266 153.247 49.9387C148.949 45.2664 143.307 41.7446 130.949 41.7446ZM143.348 62.9415L119.235 60.3119C121.308 57.0647 127.577 50.8916 134.979 53.0262C142.686 55.2488 143.787 59.4415 143.348 62.9415ZM82.4778 93.2036C84.3584 93.6066 91.6121 107.039 91.6121 107.039C91.6121 107.039 100.612 108.248 101.552 110.263C102.241 111.74 95.9356 116.029 92.4094 118.428L92.4093 118.428L92.4092 118.428C91.1232 119.302 90.2069 119.926 90.1345 120.069C90.0672 120.203 90.0582 120.876 90.0456 121.826V121.826C90.0076 124.693 89.9362 130.076 88.1196 130.681C86.4913 131.224 81.7542 127.38 78.589 124.812L78.589 124.812L78.5889 124.812L78.5887 124.812C77.054 123.567 75.889 122.622 75.6271 122.622C75.3399 122.622 74.19 123.259 72.7582 124.052C70.1915 125.475 66.719 127.399 65.6868 127.054C64.6184 126.697 66.0371 121.596 67.1096 117.74C67.6513 115.793 68.1047 114.162 68.1047 113.622C68.1047 112.848 66.6398 111.053 65.1659 109.247C63.569 107.29 61.9613 105.32 62.1942 104.622C62.511 103.671 66.9523 103.897 69.7608 104.039H69.7608H69.7608C70.9225 104.098 71.8048 104.143 72.0002 104.084C72.2163 104.02 73.1933 102.814 74.4797 101.228L74.4798 101.228L74.4799 101.228C77.1676 97.9122 81.206 92.9311 82.4778 93.2036ZM118.797 154.423C72.9414 159.355 48.9486 144.853 43.0428 137.439C42.4028 136.636 41.4 136.461 41.0171 137.414C38.4805 143.726 36.731 167.563 43.0961 179.701C47.182 187.492 67.4636 200.387 106.615 200.387C107.857 200.387 109.141 200.391 110.46 200.395C133.672 200.465 167.631 200.568 172.589 180.104C173.501 176.339 172.974 169.67 172.336 161.578C171.449 150.324 170.344 136.319 172.589 123.551C173.097 120.659 174.607 116.224 176.323 111.187C181.855 94.9386 189.522 72.4246 172.589 75.1932C164.088 76.5831 154.508 89.9693 146.126 111.596C144.89 114.785 144.125 117.794 143.348 120.851L143.348 120.851C141.997 126.167 140.608 131.631 136.641 138.444C134.423 142.254 132.864 146.451 132.717 150.856C132.578 155.031 132.319 159.532 131.063 170.566C130.927 171.754 130.811 173.157 130.693 174.595C130.446 177.573 130.188 180.702 129.719 182.387C129.182 183.462 128.415 183.61 127.704 182.79C126.447 181.339 125.677 176.335 124.893 171.24C124.588 169.26 124.282 167.266 123.943 165.462C122.452 157.51 122.098 155.964 120.629 154.855C120.115 154.467 119.438 154.354 118.797 154.423ZM186.812 90.8209C185.989 97.1917 184.87 105.612 182.355 112.867C182.127 113.524 182.122 114.242 182.353 114.897C190.48 137.905 194.115 158.036 179.243 164.939C178.544 165.264 178.112 166.009 178.211 166.774C178.63 169.995 179.363 178.498 176.569 184.923C176.273 185.604 176.925 186.386 177.624 186.135C202.101 177.342 207.684 156.102 204.022 137.79C199.664 112.626 191.243 95.9424 188.215 90.5346C187.847 89.878 186.908 90.0746 186.812 90.8209Z" fill="#E5E5E5"/>
</svg>
