<svg width="244" height="244" viewBox="0 0 244 244" fill="none" xmlns="http://www.w3.org/2000/svg">
<g clip-path="url(#clip0_1_416)">
<path d="M235.78 8.09V235.39H8.47989V8.09H235.78ZM243.88 0H0.389893V243.49H243.88V0Z" fill="#E5E5E5"/>
<mask id="mask0_1_416" style="mask-type:luminance" maskUnits="userSpaceOnUse" x="0" y="0" width="244" height="244">
<path d="M243.49 243.49H0V0H243.49V243.49Z" fill="white"/>
</mask>
<g mask="url(#mask0_1_416)">
<path d="M187.981 -103.332L-92.6838 177.333L-70.5585 199.458L210.106 -81.2069L187.981 -103.332Z" fill="#E5E5E5"/>
<path d="M233.404 -56.6966L-47.2605 223.968L-25.1351 246.094L255.53 -34.5712L233.404 -56.6966Z" fill="#E5E5E5"/>
<path d="M279.726 -10.971L-0.938477 269.694L21.1869 291.819L301.852 11.1544L279.726 -10.971Z" fill="#E5E5E5"/>
<path d="M325.968 34.6577L45.3035 315.323L67.4288 337.448L348.094 56.783L325.968 34.6577Z" fill="#E5E5E5"/>
</g>
<path d="M0 0V243.49H243.49V0H0ZM228.33 228.33H15.16V15.16H228.33V228.33Z" fill="#E5E5E5"/>
</g>
<defs>
<clipPath id="clip0_1_416">
<rect width="243.49" height="243.49" fill="white"/>
</clipPath>
</defs>
</svg>
