<svg width="244" height="244" viewBox="0 0 244 244" fill="none" xmlns="http://www.w3.org/2000/svg">
<g clip-path="url(#clip0_1_407)">
<path d="M45.09 150.54C48.7905 153.266 52.7338 155.646 56.87 157.65L57.72 158.06L58.02 158.95C59.4418 163.073 61.8279 166.797 64.9797 169.811C68.1315 172.825 71.9578 175.043 76.14 176.28C81.0083 177.772 86.1868 177.935 91.1395 176.754C96.0923 175.572 100.639 173.089 104.31 169.56C115.06 159.49 119.66 143.68 116.61 127.25C113.39 109.92 102.53 95.9501 87.61 89.8801C71.61 83.3801 57.83 73.8801 51.06 68.7601C48.1622 66.5543 44.5114 65.5805 40.9 66.0501C38.7434 66.3317 36.673 67.0753 34.83 68.2301C32.71 69.5788 30.9042 71.3667 29.5344 73.4731C28.1646 75.5795 27.2629 77.9553 26.89 80.4401C25.8996 85.7807 26.278 91.2852 27.99 96.4401L28.26 97.2101L27.98 97.9701C24.15 108.28 27.73 117.5 30.21 122.08L30.42 122.46L30.5 123.11C29.75 130.24 31.75 140.54 45.09 150.54ZM32.6 105.78C32.6 105.36 32.67 104.93 32.73 104.5L33.23 100.74L36.28 103C40.3898 105.99 44.7647 108.598 49.35 110.79C52.87 112.49 55.61 113.71 58.02 114.79C64.64 117.79 67.66 119.09 72.87 123.79C73.1298 124.038 73.4453 124.22 73.79 124.32C74.2288 124.458 74.6972 124.472 75.1436 124.361C75.59 124.25 75.9971 124.018 76.32 123.69C76.6036 123.44 76.8305 123.132 76.9857 122.787C77.1409 122.442 77.2208 122.068 77.22 121.69C77.2112 121.35 77.1341 121.016 76.9932 120.707C76.8523 120.397 76.6506 120.12 76.4 119.89C70.55 114.56 66.86 112.89 60.18 109.89C57.85 108.89 55.06 107.61 51.65 105.95C47.8841 104.155 44.2661 102.066 40.83 99.7001C37.9567 97.6849 35.7019 94.9088 34.3188 91.6833C32.9357 88.4579 32.479 84.9107 33 81.4401C33.2334 79.838 33.8064 78.3044 34.6808 76.9419C35.5553 75.5794 36.7108 74.4196 38.07 73.5401C39.0585 72.8926 40.1759 72.4677 41.3449 72.2951C42.5139 72.1224 43.7065 72.206 44.84 72.5401C45.7061 72.8057 46.5186 73.2221 47.24 73.7701C58.9264 82.6577 71.6955 90.0235 85.24 95.6901C98.24 100.96 107.66 113.19 110.49 128.41C113.15 142.73 109.25 156.41 100.06 165.02C96.5435 168.354 92.0638 170.493 87.26 171.13C84.1494 171.516 80.9923 171.233 78 170.3C75.2739 169.49 72.7355 168.148 70.5315 166.351C68.3276 164.554 66.5018 162.337 65.16 159.83C64.3914 158.372 64.0321 156.732 64.1201 155.086C64.2082 153.44 64.7403 151.848 65.66 150.48C65.8324 150.232 66.0194 149.995 66.22 149.77C67.274 148.611 68.6162 147.752 70.11 147.28C70.6392 147.075 71.0878 146.704 71.3888 146.223C71.6898 145.741 71.827 145.176 71.78 144.61C71.7513 144.084 71.5626 143.579 71.2392 143.162C70.9158 142.746 70.473 142.438 69.97 142.28C69.446 142.115 68.884 142.115 68.36 142.28C65.9675 143.059 63.8292 144.469 62.17 146.36C61.3343 147.345 60.6347 148.439 60.09 149.61L59.09 151.75L57 150.66C49.64 146.71 40.27 140.11 37.44 131.1L36 126.6L40.38 128.35C42.22 129.08 43.86 129.6 44.93 129.93L48.59 131C51.6058 131.798 54.4449 133.155 56.96 135C57.221 135.201 57.5156 135.353 57.83 135.45C58.24 135.576 58.6745 135.601 59.096 135.521C59.5175 135.442 59.9133 135.261 60.2491 134.994C60.585 134.727 60.8507 134.382 61.0233 133.989C61.196 133.597 61.2703 133.168 61.24 132.74C61.2225 132.378 61.1234 132.024 60.9503 131.706C60.7771 131.387 60.5344 131.112 60.24 130.9C57.2182 128.606 53.787 126.909 50.13 125.9L45.81 124.6C41.8191 123.395 38.3481 120.885 35.953 117.473C33.5579 114.06 32.3772 109.943 32.6 105.78Z" fill="#E5E5E5"/>
<path d="M213 123.1L213.08 122.45L213.28 122.07C215.76 117.49 219.35 108.27 215.52 97.9599L215.24 97.1999L215.51 96.4299C217.222 91.275 217.6 85.7705 216.61 80.4299C216.235 77.9457 215.333 75.5706 213.963 73.4645C212.593 71.3584 210.789 69.57 208.67 68.2199C206.823 67.0652 204.75 66.3217 202.59 66.0399C198.982 65.5719 195.335 66.5457 192.44 68.7499C185.67 73.8499 171.91 83.3699 155.89 89.8699C140.89 95.9399 130.05 109.87 126.83 127.24C123.78 143.67 128.38 159.48 139.14 169.55C142.811 173.079 147.358 175.562 152.31 176.744C157.263 177.925 162.442 177.762 167.31 176.27C171.492 175.043 175.322 172.836 178.48 169.833C181.638 166.829 184.035 163.115 185.47 159L185.77 158.11L186.61 157.7C190.748 155.698 194.691 153.318 198.39 150.59C211.74 140.54 213.74 130.24 213 123.1ZM197.62 124.69L193.29 125.99C189.634 127.002 186.203 128.699 183.18 130.99C182.889 131.205 182.649 131.481 182.476 131.799C182.303 132.117 182.202 132.469 182.18 132.83C182.156 133.211 182.213 133.592 182.347 133.949C182.482 134.306 182.691 134.63 182.96 134.9C183.302 135.233 183.728 135.468 184.192 135.581C184.657 135.693 185.143 135.679 185.6 135.54C185.913 135.439 186.207 135.287 186.47 135.09C188.981 133.245 191.817 131.888 194.83 131.09L198.5 130C199.58 129.67 201.22 129.15 203.05 128.42L207.44 126.67L206.02 131.17C203.18 140.17 193.81 146.78 186.45 150.73L184.37 151.85L183.37 149.71C182.822 148.538 182.119 147.445 181.28 146.46C179.621 144.572 177.487 143.164 175.1 142.38C174.576 142.215 174.014 142.215 173.49 142.38C172.985 142.536 172.54 142.843 172.215 143.26C171.889 143.676 171.699 144.182 171.67 144.71C171.627 145.276 171.767 145.841 172.069 146.322C172.372 146.803 172.821 147.174 173.35 147.38C174.844 147.852 176.186 148.711 177.24 149.87C177.437 150.095 177.621 150.332 177.79 150.58C178.713 151.947 179.247 153.539 179.335 155.186C179.423 156.833 179.062 158.472 178.29 159.93C176.949 162.438 175.124 164.655 172.92 166.453C170.716 168.25 168.177 169.592 165.45 170.4C162.456 171.326 159.299 171.603 156.19 171.21C151.386 170.573 146.906 168.434 143.39 165.1C134.2 156.49 130.3 142.81 132.97 128.49C135.79 113.27 145.23 101.04 158.22 95.7699C171.763 90.101 184.532 82.7354 196.22 73.8499C196.941 73.3019 197.754 72.8855 198.62 72.6199C199.752 72.286 200.943 72.2025 202.11 72.3752C203.277 72.5478 204.393 72.9726 205.38 73.6199C206.74 74.4979 207.897 75.6574 208.772 77.0201C209.646 78.3829 210.218 79.9173 210.45 81.5199C210.99 85.0012 210.545 88.5641 209.164 91.8053C207.784 95.0466 205.524 97.8367 202.64 99.8599C199.207 102.187 195.595 104.24 191.84 106C188.43 107.66 185.64 108.9 183.31 109.94C176.62 112.94 172.94 114.57 167.09 119.94C166.838 120.168 166.635 120.445 166.494 120.755C166.353 121.065 166.276 121.4 166.27 121.74C166.267 122.117 166.345 122.491 166.499 122.836C166.652 123.181 166.878 123.489 167.16 123.74C167.483 124.067 167.891 124.298 168.337 124.409C168.783 124.52 169.251 124.507 169.69 124.37C170.038 124.27 170.356 124.088 170.62 123.84C175.83 119.09 178.85 117.75 185.46 114.84C187.88 113.76 190.61 112.54 194.13 110.84C198.718 108.634 203.093 106.009 207.2 103L210.26 100.75L210.76 104.51C210.81 104.94 210.86 105.37 210.88 105.79C211.122 109.968 209.95 114.106 207.551 117.535C205.152 120.964 201.668 123.485 197.66 124.69H197.62Z" fill="#E5E5E5"/>
</g>
<defs>
<clipPath id="clip0_1_407">
<rect width="243.49" height="243.49" fill="white"/>
</clipPath>
</defs>
</svg>
