<svg width="244" height="244" viewBox="0 0 244 244" fill="none" xmlns="http://www.w3.org/2000/svg">
<path d="M121.7 39.2999C157.5 39.2999 186.7 71.7999 186.7 111.7C186.7 132.2 179.2 155.6 166.7 174.2C153.8 193.3 137.4 204.3 121.8 204.3C106.2 204.3 89.8 193.3 76.9001 174.2C64.4001 155.6 56.9001 132.2 56.9001 111.7C56.9001 71.7 86 39.2999 121.7 39.2999ZM121.8 31.2C81.5 31.2 48.8 67.2 48.8 111.7C48.8 156.2 81.5 212.4 121.8 212.4C162.1 212.4 194.8 156.2 194.8 111.7C194.8 67.2 162.1 31.2 121.8 31.2Z" fill="#E5E5E5"/>
<path d="M103.1 144.8L90.4001 171.7C90.0001 172.6 88.9001 173 88.1001 172.6C87.8001 172.5 87.6001 172.3 87.4001 172.1L82.2001 165.2C81.8001 164.7 81.7001 164 82.0001 163.4L92.7001 141.2C93.1001 140.4 93.9001 140 94.8001 140.3L102.1 142.4C103 142.7 103.5 143.7 103.3 144.6C103.1 144.7 103.1 144.8 103.1 144.8Z" fill="#E5E5E5"/>
<path d="M86.0999 139.6L78.9999 155C78.5999 155.9 77.5999 156.3 76.6999 155.9C76.2999 155.7 76 155.4 75.8 154.9L73.4 148.5C73.3 148.1 73.3 147.7 73.4 147.4L76.8 135.9C77.1 135 78.0999 134.5 78.9999 134.7C78.9999 134.7 78.9999 134.7 79.0999 134.7L85.3 137.3C86.1 137.6 86.4999 138.6 86.0999 139.6Z" fill="#E5E5E5"/>
<path d="M72.7001 131.3L70.5001 137.8C70.3001 138.4 69.6001 138.8 69.0001 138.6C68.6001 138.5 68.3001 138.1 68.2001 137.7L66.6001 129.1C66.4001 128.1 67.1001 127 68.1001 126.8C68.7001 126.7 69.2001 126.8 69.7001 127.2L72.2001 129.2C72.7001 129.7 72.9001 130.5 72.7001 131.3Z" fill="#E5E5E5"/>
<path d="M140.4 144.8L153.2 171.7C153.6 172.6 154.7 173 155.5 172.6C155.8 172.5 156 172.3 156.2 172.1L161.4 165.2C161.8 164.7 161.9 164 161.6 163.4L150.9 141.2C150.5 140.4 149.7 140 148.8 140.3L141.5 142.4C140.6 142.7 140 143.6 140.3 144.6C140.3 144.7 140.4 144.8 140.4 144.8Z" fill="#E5E5E5"/>
<path d="M157.4 139.6L164.5 155C164.9 155.9 166 156.3 166.8 155.8C167.2 155.6 167.5 155.3 167.7 154.8L170.1 148.4C170.2 148 170.2 147.6 170.1 147.3L166.7 135.8C166.4 134.9 165.5 134.3 164.5 134.6C164.4 134.6 164.4 134.6 164.3 134.7L158.1 137.3C157.4 137.7 157 138.7 157.4 139.6Z" fill="#E5E5E5"/>
<path d="M140.4 144.8L153.2 171.7C153.6 172.6 154.7 173 155.5 172.6C155.8 172.5 156 172.3 156.2 172.1L161.4 165.2C161.8 164.7 161.9 164 161.6 163.4L150.9 141.2C150.5 140.4 149.7 140 148.8 140.3L141.5 142.4C140.6 142.7 140 143.6 140.3 144.6C140.3 144.7 140.4 144.8 140.4 144.8Z" fill="#E5E5E5"/>
<path d="M157.4 139.6L164.5 155C164.9 155.9 166 156.3 166.8 155.8C167.2 155.6 167.5 155.3 167.7 154.8L170.1 148.4C170.2 148 170.2 147.6 170.1 147.3L166.7 135.8C166.4 134.9 165.5 134.3 164.5 134.6C164.4 134.6 164.4 134.6 164.3 134.7L158.1 137.3C157.4 137.7 157 138.7 157.4 139.6Z" fill="#E5E5E5"/>
<path d="M170.8 131.3L173 137.8C173.2 138.4 173.9 138.8 174.5 138.5C174.9 138.4 175.2 138 175.3 137.6L176.9 129C177.1 128 176.4 126.9 175.4 126.7C174.8 126.6 174.3 126.7 173.8 127.1L171.3 129.1C170.8 129.7 170.6 130.5 170.8 131.3Z" fill="#E5E5E5"/>
<path d="M87.1 67.0999L74.8 85.7999C74 86.9999 74.3 88.5999 75.5 89.2999C75.8 89.4999 76.2 89.6999 76.6 89.6999L93.1 91.6999C94.5 91.8999 95.8 90.8999 95.9 89.4999C95.9 89.1999 95.9 88.8999 95.8 88.5999L91 67.7999C90.7 66.5999 89.6 65.8999 88.4 66.1999C87.9 66.3999 87.4 66.6999 87.1 67.0999Z" fill="#E5E5E5"/>
<path d="M156.4 67.1001L168.8 85.8001C169.6 87.0001 169.3 88.6001 168.1 89.3001C167.8 89.5001 167.4 89.7001 167 89.7001L150.5 91.7001C149.1 91.9001 147.8 90.9001 147.7 89.5001C147.7 89.2001 147.7 88.9001 147.7 88.6001L152.6 67.7001C152.9 66.5001 154 65.8001 155.2 66.1001C155.6 66.3001 156.1 66.7001 156.4 67.1001Z" fill="#E5E5E5"/>
</svg>
