<svg width="244" height="244" viewBox="0 0 244 244" fill="none" xmlns="http://www.w3.org/2000/svg">
<path d="M70.3599 19.9101L62.9099 22.7701C62.4778 22.9382 62.0074 22.9824 61.5516 22.8975C61.0957 22.8127 60.6727 22.6024 60.3299 22.2901L53.2199 15.8701C52.8501 15.5138 52.3796 15.28 51.8722 15.2005C51.3649 15.1211 50.8454 15.1997 50.3844 15.4259C49.9233 15.6521 49.5431 16.0147 49.2954 16.4645C49.0477 16.9144 48.9445 17.4296 48.9999 17.9401L49.8299 27.4901C49.8675 27.9523 49.7773 28.416 49.5692 28.8304C49.3611 29.2449 49.0431 29.5941 48.6499 29.8401L41.8699 34.0501C41.4502 34.3103 41.1165 34.6886 40.9107 35.1375C40.7049 35.5865 40.6361 36.0862 40.713 36.5741C40.7898 37.0619 41.0089 37.5163 41.3428 37.8802C41.6767 38.2442 42.1105 38.5015 42.5899 38.6201L49.2299 40.2601C49.7387 40.3855 50.1955 40.667 50.5363 41.0651C50.877 41.4632 51.0846 41.958 51.1299 42.4801L51.9999 52.1401C52.0407 52.6316 52.2259 53.1002 52.5323 53.4867C52.8388 53.8732 53.2527 54.1604 53.722 54.3122C54.1913 54.464 54.695 54.4736 55.1698 54.3398C55.6445 54.2059 56.069 53.9347 56.3899 53.5601L63.9999 44.8601C64.2096 44.6132 64.4659 44.4101 64.7542 44.2626C65.0425 44.115 65.3571 44.0258 65.6799 44.0001L77.1699 43.2401C77.6629 43.2086 78.1357 43.0324 78.529 42.7335C78.9223 42.4346 79.2186 42.0263 79.3809 41.5598C79.5432 41.0932 79.5642 40.5891 79.4413 40.1107C79.3184 39.6322 79.057 39.2007 78.6899 38.8701L71.4999 32.3801C71.1109 32.03 70.841 31.5671 70.7281 31.0561C70.6151 30.5451 70.6647 30.0115 70.8699 29.5301L73.5699 23.2401C73.7642 22.7863 73.8204 22.2853 73.7314 21.7997C73.6424 21.3141 73.4122 20.8656 73.0696 20.5102C72.727 20.1548 72.2872 19.9083 71.8053 19.8016C71.3233 19.6948 70.8206 19.7326 70.3599 19.9101Z" fill="#E5E5E5"/>
<path d="M187 200.22C165.65 186.61 158.56 195.7 145.63 184.22C135.63 175.35 137.87 170.9 137.87 170.9C139.2 173.716 141.314 176.089 143.958 177.733C146.603 179.378 149.666 180.224 152.78 180.17C152.928 180.172 153.075 180.137 153.206 180.068C153.337 179.999 153.449 179.898 153.531 179.775C153.614 179.652 153.664 179.51 153.678 179.363C153.692 179.215 153.668 179.066 153.61 178.93C152.4 176.26 149.84 169.74 151.38 165.29C153.38 159.58 154.91 158.74 154.91 158.74C154.91 158.74 154.55 168.21 159.91 170.39C160.028 170.435 160.154 170.453 160.28 170.445C160.405 170.437 160.528 170.402 160.639 170.342C160.75 170.282 160.846 170.199 160.923 170.099C160.999 169.998 161.052 169.883 161.08 169.76C161.629 167.411 162.469 165.141 163.58 163C165.66 159.05 171.06 150.94 165.14 132.76C164.731 131.508 164.397 130.232 164.14 128.94C166.43 124.53 169.45 120.34 169.54 114.77C169.63 109.2 166.86 108.25 164.78 108.26C166.24 99.44 167.91 90.33 164.78 79.4C163.964 76.6914 162.801 74.0999 161.32 71.69C163.65 68.25 167.55 61.87 167.71 57.17C167.93 50.47 160.79 53.67 155.06 56.87C153.45 57.77 151.7 58.62 150 59.39C145.378 55.9436 140.273 53.1974 134.85 51.24C122.295 46.6397 108.515 46.6397 95.9601 51.24C90.537 53.1974 85.4322 55.9436 80.8101 59.39C79.1101 58.62 77.3701 57.77 75.7601 56.87C70.0301 53.67 62.8801 50.47 63.1101 57.17C63.2601 61.87 67.1101 68.25 69.4901 71.69C67.9957 74.0898 66.8223 76.6751 66.0001 79.38C62.9001 90.31 64.5701 99.38 66.0001 108.24C63.9301 108.24 61.1501 109.24 61.2401 114.75C61.3301 120.26 64.3501 124.51 66.6501 128.92C66.393 130.212 66.059 131.488 65.6501 132.74C59.7801 150.92 65.1801 159 67.2601 163C68.3151 165.026 68.9318 167.25 69.0701 169.53C69.0788 169.674 69.1228 169.814 69.1983 169.937C69.2738 170.06 69.3784 170.163 69.5029 170.236C69.6274 170.309 69.768 170.35 69.9122 170.356C70.0565 170.362 70.2 170.333 70.3301 170.27C75.4801 167.9 75.8901 158.74 75.8901 158.74C75.8901 158.74 77.4501 159.58 79.4201 165.29C80.9601 169.74 78.4201 176.29 77.2001 178.93C77.1394 179.065 77.1139 179.214 77.1259 179.362C77.138 179.509 77.1872 179.652 77.269 179.776C77.3508 179.899 77.4626 180 77.5939 180.069C77.7252 180.138 77.8718 180.173 78.0201 180.17C81.1339 180.224 84.197 179.378 86.8418 177.733C89.4865 176.089 91.6006 173.716 92.9301 170.9C92.9301 170.9 95.1501 175.35 85.1701 184.22C72.2401 195.72 65.1701 186.63 43.8001 200.22C27.9101 210.35 24.8701 228.27 24.8701 228.27H205.87C205.87 228.27 202.86 210.35 187 200.22Z" fill="#E5E5E5"/>
<path d="M37.07 77.72C31.18 77.72 26.47 82.13 26.71 87.43L28.66 130.07C28.84 134.13 32.56 137.33 37.07 137.33C41.59 137.33 45.3 134.13 45.49 130.07L47.44 87.43C47.68 82.13 42.97 77.72 37.07 77.72Z" fill="#E5E5E5"/>
<path d="M37.0701 157.61C41.759 157.61 45.5601 153.809 45.5601 149.12C45.5601 144.431 41.759 140.63 37.0701 140.63C32.3812 140.63 28.5801 144.431 28.5801 149.12C28.5801 153.809 32.3812 157.61 37.0701 157.61Z" fill="#E5E5E5"/>
<path d="M190.83 56.25C195.519 56.25 199.32 52.4489 199.32 47.76C199.32 43.0711 195.519 39.27 190.83 39.27C186.141 39.27 182.34 43.0711 182.34 47.76C182.34 52.4489 186.141 56.25 190.83 56.25Z" fill="#E5E5E5"/>
<path d="M97.0701 41.2901C100.654 41.2901 103.56 38.3844 103.56 34.8001C103.56 31.2157 100.654 28.3101 97.0701 28.3101C93.4857 28.3101 90.5801 31.2157 90.5801 34.8001C90.5801 38.3844 93.4857 41.2901 97.0701 41.2901Z" fill="#E5E5E5"/>
<path d="M57.6899 183.88C61.2743 183.88 64.18 180.974 64.18 177.39C64.18 173.806 61.2743 170.9 57.6899 170.9C54.1056 170.9 51.2 173.806 51.2 177.39C51.2 180.974 54.1056 183.88 57.6899 183.88Z" fill="#E5E5E5"/>
<path d="M193.73 147.49C197.889 147.49 201.26 144.119 201.26 139.96C201.26 135.801 197.889 132.43 193.73 132.43C189.571 132.43 186.2 135.801 186.2 139.96C186.2 144.119 189.571 147.49 193.73 147.49Z" fill="#E5E5E5"/>
<path d="M210.63 81.3299C206.697 78.2166 201.543 76.6599 195.17 76.6599C186.97 76.6599 180.89 78.8899 176.93 83.3499C175.786 84.6375 174.78 86.0419 173.93 87.5399C170.54 93.5399 173.93 101.54 180.01 102.44C183.57 102.96 186.95 100.73 188.58 96.9999C188.876 96.304 189.27 95.654 189.75 95.0699C190.369 94.3006 191.156 93.6834 192.05 93.2656C192.944 92.8478 193.923 92.6406 194.91 92.6599C195.699 92.5978 196.493 92.7049 197.238 92.9739C197.983 93.2429 198.662 93.6677 199.23 94.2199C200.246 95.445 200.757 97.0112 200.66 98.5999C200.66 100.48 199.473 102.55 197.1 104.81C194.044 107.617 191.177 110.623 188.52 113.81C187.246 115.52 186.272 117.434 185.64 119.47C185.64 119.58 185.58 119.69 185.55 119.82C184.41 124.71 187.72 129.49 192.06 129.49H193.7C197.44 129.49 200.7 126.91 202.5 123.06C203.28 121.4 205.147 119.203 208.1 116.47C212.353 112.577 215.163 109.28 216.53 106.58C217.885 103.983 218.595 101.099 218.6 98.1699C218.708 94.9311 218.041 91.7133 216.655 88.7843C215.269 85.8552 213.203 83.2995 210.63 81.3299Z" fill="#E5E5E5"/>
<path d="M150.28 44.9999L143.72 34.8599C143.205 34.059 143.006 33.0949 143.164 32.1557C143.321 31.2164 143.822 30.3694 144.57 29.7799L156.1 20.7199C156.529 20.3826 157.026 20.1412 157.557 20.0121C158.087 19.883 158.64 19.8692 159.176 19.9715C159.712 20.0739 160.221 20.29 160.666 20.6054C161.112 20.9208 161.485 21.3281 161.76 21.7999L169 34.1199C169.256 34.5588 169.423 35.0443 169.49 35.5481C169.556 36.0519 169.522 36.564 169.389 37.0545C169.256 37.545 169.027 38.0041 168.714 38.405C168.402 38.806 168.013 39.1408 167.57 39.3899L155.37 46.2299C154.523 46.707 153.527 46.8453 152.583 46.6171C151.638 46.3888 150.815 45.8109 150.28 44.9999Z" fill="#E5E5E5"/>
</svg>
