<svg width="244" height="244" viewBox="0 0 244 244" fill="none" xmlns="http://www.w3.org/2000/svg">
<path d="M121.74 40C103.96 40 89.54 43.18 89.54 47.11V66.43C89.54 67.77 91.22 69.02 94.13 70.08C96.0902 70.8136 97.8949 71.9093 99.45 73.31C99.71 73.543 99.9839 73.76 100.27 73.96C103.13 75.9394 106.228 77.552 109.49 78.76C110.637 81.8723 112.151 84.8365 114 87.59C115.329 89.6284 117.386 91.0838 119.75 91.66C121.517 92.0614 123.362 91.9277 125.053 91.2758C126.743 90.624 128.201 89.4836 129.24 88C131.193 85.2087 132.792 82.1856 134 79C137.341 77.7714 140.497 76.089 143.38 74L143.97 73.53C145.579 72.0791 147.44 70.9337 149.46 70.15C152.3 69 154 67.76 154 66.43V47.1C154 43.17 139.53 40 121.74 40ZM138.59 67.37C135.462 69.6942 131.898 71.3641 128.11 72.28C127.932 72.3222 127.768 72.4126 127.638 72.5413C127.507 72.67 127.415 72.8322 127.37 73.01C126.397 76.7072 124.786 80.2063 122.61 83.35C122.516 83.4886 122.39 83.6014 122.241 83.6783C122.093 83.7552 121.927 83.7936 121.76 83.79C121.595 83.7919 121.431 83.7527 121.285 83.6759C121.138 83.5991 121.013 83.4871 120.92 83.35C120.77 83.13 120.6 82.89 120.43 82.62C118.59 79.7875 117.191 76.6923 116.28 73.44C116.28 73.25 116.17 73.07 116.12 72.88C116.077 72.7003 115.985 72.5361 115.855 72.4055C115.724 72.2749 115.56 72.183 115.38 72.14C111.636 71.164 108.093 69.5394 104.91 67.34C104.768 67.2498 104.65 67.125 104.569 66.9773C104.487 66.8296 104.445 66.6637 104.445 66.495C104.445 66.3264 104.487 66.1604 104.569 66.0127C104.65 65.865 104.768 65.7402 104.91 65.65C108.054 63.4742 111.553 61.8634 115.25 60.89C115.428 60.8454 115.59 60.7528 115.719 60.6223C115.847 60.4918 115.938 60.3284 115.98 60.15C116.896 56.3623 118.566 52.798 120.89 49.67C120.99 49.5342 121.122 49.4244 121.273 49.3496C121.424 49.2748 121.591 49.2372 121.76 49.24C121.929 49.2361 122.097 49.2721 122.25 49.345C122.403 49.418 122.537 49.5259 122.64 49.66C124.928 52.7523 126.583 56.2663 127.51 60C127.555 60.1747 127.647 60.3339 127.776 60.4607C127.904 60.5874 128.065 60.6771 128.24 60.72C131.977 61.6526 135.493 63.3107 138.59 65.6C138.725 65.7037 138.834 65.8369 138.909 65.9895C138.984 66.1421 139.024 66.3099 139.024 66.48C139.024 66.6501 138.984 66.8179 138.909 66.9705C138.834 67.1231 138.725 67.2563 138.59 67.36V67.37Z" fill="#E5E5E5"/>
<path d="M144.38 171.55C141.23 168.46 136.11 165.16 131.13 165.16C130.113 165.16 129.102 165.312 128.13 165.61C126.13 163.16 124.59 162.38 121.79 162.38C118.99 162.38 117.48 163.16 115.45 165.61C114.478 165.31 113.467 165.159 112.45 165.16C107.45 165.16 102.34 168.46 99.1999 171.55C94.7999 175.88 88.2 182.64 84.33 182.77C80.46 182.9 90.01 194.47 94.41 199.54C94.9048 200.205 95.5426 200.751 96.2764 201.137C97.0103 201.523 97.8214 201.739 98.65 201.77C100.497 201.617 102.22 200.779 103.48 199.42C103.48 199.42 108.88 203.5 112.72 203.5C113.31 203.543 113.9 203.425 114.429 203.16C114.957 202.894 115.403 202.489 115.72 201.99C117.55 199.05 118.08 192.29 118.23 187.92C119.333 188.525 120.572 188.842 121.83 188.842C123.088 188.842 124.326 188.525 125.43 187.92C125.58 192.29 126.11 199.05 127.94 201.99C128.256 202.49 128.702 202.895 129.231 203.161C129.759 203.427 130.35 203.544 130.94 203.5C134.77 203.5 140.18 199.42 140.18 199.42C141.44 200.779 143.163 201.617 145.01 201.77C145.838 201.739 146.649 201.522 147.383 201.136C148.117 200.75 148.755 200.205 149.25 199.54C153.64 194.47 163.18 182.91 159.32 182.77C155.46 182.63 148.78 175.88 144.38 171.55Z" fill="#E5E5E5"/>
<path d="M43.38 105.81C40.4787 96.9535 38.6719 87.7753 38 78.48C37.9916 78.3175 37.9437 78.1595 37.8604 78.0197C37.7771 77.8799 37.6609 77.7625 37.522 77.6778C37.3831 77.593 37.2256 77.5435 37.0631 77.5334C36.9007 77.5233 36.7383 77.5531 36.59 77.62L29.59 80.62C29.3961 80.7014 29.2327 80.8418 29.1232 81.0213C29.0137 81.2009 28.9636 81.4104 28.98 81.62C31.57 131.8 62.98 161.42 80.77 174.25C81.347 174.669 82.0637 174.848 82.77 174.75C83.1918 174.708 83.5987 174.572 83.96 174.35C85.8227 173.023 87.5781 171.552 89.21 169.95C89.2753 169.895 89.3278 169.826 89.3638 169.748C89.3997 169.67 89.4184 169.586 89.4184 169.5C89.4184 169.414 89.3997 169.33 89.3638 169.252C89.3278 169.174 89.2753 169.105 89.21 169.05C61.46 147.92 49 123.12 43.38 105.81Z" fill="#E5E5E5"/>
<path d="M47.14 73.0601C46.7623 73.2195 46.4428 73.491 46.2246 73.838C46.0063 74.185 45.9 74.5907 45.92 75.0001C46.3221 84.7666 48.0961 94.4279 51.19 103.7C56.55 120.05 68.53 143.62 95.19 163.62C95.2932 163.7 95.4197 163.743 95.55 163.743C95.6802 163.743 95.8068 163.7 95.91 163.62C99.12 161.06 104.56 157.62 110.99 157.17C110.99 157.17 110.99 157.17 110.99 157.1C80.49 114.15 79.99 73.4501 80.56 61.8301C80.5914 61.4816 80.5308 61.131 80.3843 60.8132C80.2378 60.4955 80.0105 60.2217 79.725 60.0193C79.4396 59.8168 79.1061 59.6928 78.7578 59.6597C78.4094 59.6265 78.0585 59.6852 77.74 59.8301L47.14 73.0601Z" fill="#E5E5E5"/>
<path d="M200.11 105.81C203.018 96.9544 204.832 87.7762 205.51 78.48C205.518 78.3175 205.566 78.1595 205.65 78.0197C205.733 77.8799 205.849 77.7625 205.988 77.6778C206.127 77.593 206.284 77.5435 206.447 77.5334C206.609 77.5233 206.772 77.5531 206.92 77.62L213.92 80.62C214.116 80.6998 214.281 80.8395 214.393 81.0192C214.504 81.1988 214.556 81.4092 214.54 81.62C211.95 131.8 180.54 161.42 162.74 174.25C162.165 174.673 161.447 174.852 160.74 174.75C160.315 174.71 159.904 174.573 159.54 174.35C157.681 173.023 155.929 171.552 154.3 169.95C154.238 169.891 154.189 169.819 154.157 169.74C154.125 169.66 154.111 169.574 154.116 169.488C154.121 169.403 154.144 169.319 154.185 169.243C154.225 169.168 154.282 169.102 154.35 169.05C182 147.92 194.5 123.12 200.11 105.81Z" fill="#E5E5E5"/>
<path d="M196.34 73.0601C196.719 73.2179 197.041 73.4888 197.261 73.8359C197.481 74.183 197.589 74.5895 197.57 75.0001C197.168 84.7674 195.39 94.4291 192.29 103.7C186.94 120.05 174.95 143.62 148.29 163.62C148.187 163.7 148.06 163.743 147.93 163.743C147.8 163.743 147.673 163.7 147.57 163.62C144.37 161.06 138.93 157.62 132.49 157.17V157.1C163 114.15 163.49 73.4501 162.92 61.8301C162.889 61.4816 162.949 61.131 163.096 60.8132C163.242 60.4955 163.469 60.2217 163.755 60.0193C164.04 59.8168 164.374 59.6928 164.722 59.6597C165.071 59.6265 165.421 59.6852 165.74 59.8301L196.34 73.0601Z" fill="#E5E5E5"/>
</svg>
