<svg width="244" height="244" viewBox="0 0 244 244" fill="none" xmlns="http://www.w3.org/2000/svg">
<path d="M105 151.56L88.07 149.94C86.8099 149.865 85.5948 149.444 84.5577 148.725C83.5206 148.005 82.7015 147.014 82.19 145.86L75.33 128.22C73.19 122.72 64.14 122.72 62 128.22L55.14 145.86C54.6268 147.015 53.8059 148.006 52.767 148.726C51.7282 149.445 50.5115 149.865 49.25 149.94L32.33 151.56C26.47 152.13 23.97 158.27 28.14 161.85L40.63 172.58C41.5319 173.299 42.1825 174.286 42.488 175.398C42.7935 176.51 42.7381 177.691 42.33 178.77L34.18 199.77C32.18 204.86 38.33 209.48 43.94 207.11L65.55 198C66.53 197.589 67.5821 197.377 68.645 197.377C69.7078 197.377 70.7599 197.589 71.74 198L93.37 207.12C98.97 209.49 105.11 204.87 103.13 199.78L94.98 178.78C94.5718 177.701 94.5164 176.52 94.8219 175.408C95.1274 174.296 95.778 173.309 96.68 172.59L109.17 161.86C113.34 158.27 110.84 152.13 105 151.56Z" fill="#E5E5E5"/>
<path d="M211.18 151.56L194.25 149.94C192.99 149.865 191.775 149.444 190.738 148.725C189.701 148.005 188.882 147.014 188.37 145.86L181.51 128.22C179.36 122.72 170.32 122.72 168.18 128.22L161.32 145.86C160.807 147.015 159.986 148.006 158.947 148.726C157.908 149.445 156.692 149.865 155.43 149.94L138.5 151.56C132.65 152.13 130.15 158.27 134.32 161.85L146.81 172.58C147.712 173.299 148.363 174.286 148.668 175.398C148.974 176.51 148.918 177.691 148.51 178.77L140.36 199.77C138.36 204.86 144.51 209.48 150.11 207.11L171.75 198C172.73 197.589 173.782 197.377 174.845 197.377C175.908 197.377 176.96 197.589 177.94 198L199.57 207.12C205.17 209.49 211.31 204.87 209.33 199.78L201.17 178.78C200.767 177.7 200.714 176.521 201.019 175.41C201.324 174.299 201.972 173.312 202.87 172.59L215.37 161.86C219.54 158.27 217 152.13 211.18 151.56Z" fill="#E5E5E5"/>
<path d="M68.6401 115.59C67.5792 115.59 66.5618 115.169 65.8117 114.418C65.0615 113.668 64.6401 112.651 64.6401 111.59V91.5899C64.6076 89.8576 64.0632 88.1737 63.0756 86.7501C62.088 85.3266 60.7013 84.227 59.0901 83.5899C54.3541 81.6036 50.3467 78.2036 47.6154 73.8543C44.8842 69.5051 43.5622 64.4187 43.8301 59.2899C44.4601 47.1999 55.2201 36.4499 67.3101 35.8099C72.4193 35.5578 77.4828 36.879 81.8174 39.5953C86.152 42.3116 89.549 46.2922 91.5501 50.9999C95.2783 60.1871 99.7777 69.042 105 77.4699L109.12 83.9999C109.697 84.9057 109.89 86.0034 109.657 87.0516C109.425 88.0999 108.786 89.0129 107.88 89.5899C106.972 90.1629 105.875 90.353 104.827 90.1188C103.78 89.8845 102.867 89.2449 102.29 88.3399L98.1201 81.7699C93.2801 74.1699 88.9601 65.6299 84.1201 54.0899C82.7641 50.9161 80.4657 48.2356 77.5359 46.4112C74.6062 44.5868 71.1866 43.7067 67.7401 43.8899C59.7401 44.3099 52.3301 51.7099 51.9101 59.7199C51.7323 63.1719 52.6216 66.5949 54.4573 69.5237C56.2929 72.4526 58.9859 74.7452 62.1701 76.0899C65.2567 77.3424 67.9031 79.4811 69.7754 82.2361C71.6477 84.9912 72.6619 88.239 72.6901 91.5699V111.57C72.6928 112.101 72.5897 112.628 72.3867 113.118C72.1838 113.609 71.8851 114.055 71.508 114.429C71.131 114.803 70.6833 115.099 70.1908 115.298C69.6984 115.497 69.1713 115.597 68.6401 115.59Z" fill="#E5E5E5"/>
<path d="M174.84 115.59C173.779 115.59 172.762 115.169 172.012 114.418C171.261 113.668 170.84 112.651 170.84 111.59V91.5899C170.808 89.8562 170.263 88.1708 169.273 86.7469C168.283 85.3229 166.894 84.2243 165.28 83.5899C160.545 81.5996 156.539 78.1993 153.805 73.8515C151.071 69.5037 149.742 64.4194 150 59.2899C150.63 47.1999 161.38 36.4499 173.48 35.8099C178.594 35.5515 183.664 36.8698 188.005 39.5865C192.345 42.3031 195.747 46.2872 197.75 50.9999C201.457 60.1941 205.94 69.0561 211.15 77.4899L215.32 83.9999C215.612 84.447 215.811 84.948 215.906 85.4732C216.001 85.9985 215.99 86.5375 215.873 87.0585C215.757 87.5794 215.537 88.0718 215.228 88.5065C214.918 88.9413 214.524 89.3097 214.07 89.5899C213.623 89.88 213.123 90.078 212.599 90.1722C212.075 90.2664 211.537 90.2549 211.017 90.1385C210.497 90.022 210.006 89.803 209.572 89.4941C209.138 89.1853 208.77 88.7929 208.49 88.3399L204.31 81.7699C199.48 74.1699 195.16 65.6299 190.31 54.0899C188.961 50.912 186.669 48.2253 183.743 46.3937C180.816 44.5621 177.398 43.6741 173.95 43.8499C165.95 44.2699 158.55 51.6699 158.13 59.6799C157.952 63.1319 158.841 66.5549 160.677 69.4837C162.513 72.4126 165.206 74.7052 168.39 76.0499C171.477 77.3024 174.123 79.4411 175.995 82.1961C177.868 84.9512 178.882 88.199 178.91 91.5299V111.53C178.918 112.066 178.818 112.599 178.617 113.096C178.415 113.592 178.115 114.044 177.735 114.422C177.356 114.801 176.904 115.1 176.406 115.3C175.909 115.501 175.376 115.599 174.84 115.59Z" fill="#E5E5E5"/>
</svg>
