<svg width="244" height="244" viewBox="0 0 244 244" fill="none" xmlns="http://www.w3.org/2000/svg">
<g clip-path="url(#clip0_1_465)">
<path d="M54.71 93.0799C61.1265 94.0888 67.3412 96.1142 73.12 99.0799C83.59 104.58 91.42 113.08 96.52 124.6C96.6512 124.876 96.7234 125.176 96.7318 125.481C96.7403 125.786 96.6848 126.09 96.569 126.372C96.4531 126.655 96.2795 126.91 96.0593 127.121C95.839 127.333 95.577 127.496 95.29 127.6C82.1768 132.28 69.9781 139.207 59.24 148.07C58.9894 148.279 58.6952 148.429 58.3791 148.51C58.0629 148.591 57.7327 148.6 57.4125 148.537C57.0924 148.473 56.7904 148.339 56.5287 148.144C56.267 147.95 56.0522 147.699 55.9 147.41C54.3268 144.475 52.944 141.442 51.76 138.33C45.61 122.04 46.56 107.17 54.76 93.0999M46.86 75.1599H46.11C19.83 109.05 32.4 142.44 44.11 161.35C45.2812 163.225 46.8568 164.814 48.7214 166.001C50.586 167.189 52.6925 167.944 54.8867 168.213C57.081 168.481 59.3075 168.256 61.4033 167.553C63.4992 166.85 65.4114 165.687 67 164.15C79.47 152.33 94.56 145.78 105.2 142.33C107.082 141.728 108.823 140.751 110.318 139.46C111.814 138.168 113.033 136.587 113.902 134.813C114.772 133.039 115.274 131.107 115.378 129.133C115.482 127.16 115.187 125.186 114.51 123.33C97.84 76.8199 53.18 75.1599 46.86 75.1599Z" fill="#E5E5E5"/>
<path d="M196.47 93.0799C204.62 107.15 205.57 122.02 199.42 138.31C198.236 141.422 196.853 144.455 195.28 147.39C195.128 147.679 194.913 147.93 194.651 148.124C194.39 148.319 194.088 148.453 193.767 148.517C193.447 148.58 193.117 148.571 192.801 148.49C192.485 148.409 192.191 148.259 191.94 148.05C181.202 139.187 169.003 132.26 155.89 127.58C155.601 127.478 155.337 127.317 155.115 127.106C154.893 126.895 154.718 126.639 154.602 126.356C154.486 126.073 154.431 125.768 154.441 125.462C154.451 125.156 154.526 124.855 154.66 124.58C159.75 113.11 167.58 104.58 178.06 99.0599C183.839 96.0942 190.053 94.0688 196.47 93.0599M204.32 75.1399C198 75.1399 153.32 76.7999 136.65 123.3C135.973 125.157 135.678 127.131 135.783 129.105C135.888 131.079 136.391 133.011 137.262 134.786C138.132 136.56 139.352 138.141 140.849 139.432C142.345 140.723 144.087 141.699 145.97 142.3C156.61 145.75 171.7 152.3 184.17 164.12C185.758 165.661 187.671 166.828 189.768 167.534C191.866 168.24 194.095 168.467 196.292 168.2C198.489 167.932 200.598 167.176 202.464 165.988C204.331 164.799 205.908 163.207 207.08 161.33C218.78 142.42 231.34 109.03 205.08 75.1399H204.32Z" fill="#E5E5E5"/>
</g>
<defs>
<clipPath id="clip0_1_465">
<rect width="243.49" height="243.49" fill="white"/>
</clipPath>
</defs>
</svg>
