<svg width="244" height="244" viewBox="0 0 244 244" fill="none" xmlns="http://www.w3.org/2000/svg">
<path d="M169.25 99.85H135.54L158.46 48.92L159.62 46.34L164.05 36.48C164.418 35.6634 164.576 34.7673 164.508 33.874C164.44 32.9808 164.149 32.1188 163.661 31.3674C163.173 30.6159 162.505 29.9989 161.717 29.5731C160.928 29.1472 160.046 28.9261 159.15 28.93C157.807 28.9402 156.52 29.4707 155.56 30.41L67.88 112.33C66.838 113.303 66.113 114.567 65.7992 115.957C65.4854 117.348 65.5974 118.8 66.1207 120.126C66.6439 121.452 67.5542 122.59 68.733 123.391C69.9118 124.193 71.3046 124.621 72.73 124.62H104.08L82.39 172.83L81 176L67.13 206.74C66.7473 207.586 66.5836 208.514 66.6539 209.439C66.7243 210.365 67.0264 211.257 67.5324 212.035C68.0384 212.813 68.7321 213.451 69.5496 213.891C70.3671 214.33 71.282 214.557 72.21 214.55C72.9192 214.543 73.6198 214.394 74.2706 214.113C74.9215 213.831 75.5095 213.422 76 212.91L99.36 189.77L101.65 187.5L175.84 114C176.895 112.745 177.57 111.215 177.785 109.589C178 107.964 177.746 106.311 177.054 104.825C176.362 103.339 175.26 102.081 173.877 101.2C172.495 100.318 170.89 99.8502 169.25 99.85Z" fill="#E5E5E5"/>
<path d="M72.3299 175.45L75.8099 167.73C65.0016 158.373 57.3132 145.934 53.7759 132.083C50.2386 118.231 51.0216 103.629 56.0198 90.2351C61.018 76.8412 69.9925 65.296 81.7394 57.1481C93.4862 49.0002 107.444 44.6392 121.74 44.6501C123.9 44.6501 126.02 44.7701 128.13 44.9601L135.75 37.8401C118.677 34.7346 101.056 37.3941 85.6594 45.3999C70.2632 53.4058 57.9659 66.3035 50.7025 82.0636C43.4392 97.8237 41.6222 115.552 45.5374 132.457C49.4526 149.363 58.8778 164.487 72.3299 175.45Z" fill="#E5E5E5"/>
<path d="M147.19 181C146.898 180.851 146.579 180.765 146.251 180.746C145.924 180.727 145.597 180.776 145.29 180.89C137.734 183.596 129.766 184.977 121.74 184.97C119.81 184.97 117.9 184.87 116.01 184.71L108.7 191.96C112.996 192.685 117.344 193.053 121.7 193.06C132.854 193.074 143.88 190.686 154.03 186.06C152.031 184.023 149.722 182.316 147.19 181Z" fill="#E5E5E5"/>
<path d="M181.74 169.74C180.68 169.073 179.64 168.353 178.62 167.58C178.09 167.19 177.62 166.76 177.07 166.35C176.79 166.12 176.5 165.9 176.23 165.66C175.7 165.21 175.23 164.75 174.67 164.27C174.46 164.08 174.24 163.88 174.03 163.67C173.48 163.15 172.95 162.61 172.43 162.06L172.04 161.65C171.47 161.03 170.9 160.41 170.36 159.76C168.931 158.061 167.615 156.27 166.42 154.4C166.273 154.167 166.07 153.974 165.828 153.841C165.587 153.707 165.316 153.637 165.04 153.637C164.764 153.637 164.493 153.707 164.252 153.841C164.01 153.974 163.807 154.167 163.66 154.4C159.738 160.575 154.5 165.806 148.32 169.72C148.087 169.868 147.895 170.073 147.761 170.315C147.628 170.557 147.558 170.829 147.558 171.105C147.558 171.381 147.628 171.653 147.761 171.895C147.895 172.137 148.087 172.342 148.32 172.49C149.08 172.98 149.84 173.49 150.58 174.02C151.32 174.55 152.13 175.17 152.88 175.77L153.06 175.92C153.75 176.49 154.44 177.07 155.06 177.67L155.45 178.04C156.06 178.6 156.65 179.17 157.23 179.76C157.41 179.94 157.57 180.13 157.75 180.31C158.29 180.89 158.83 181.46 159.34 182.06C160.896 183.875 162.323 185.796 163.61 187.81C163.757 188.043 163.96 188.236 164.202 188.369C164.443 188.503 164.714 188.573 164.99 188.573C165.266 188.573 165.537 188.503 165.778 188.369C166.02 188.236 166.223 188.043 166.37 187.81C170.288 181.638 175.523 176.41 181.7 172.5C181.933 172.355 182.127 172.154 182.262 171.914C182.397 171.675 182.47 171.406 182.474 171.131C182.478 170.856 182.413 170.585 182.285 170.342C182.156 170.099 181.969 169.892 181.74 169.74Z" fill="#E5E5E5"/>
<path d="M191.88 114.8C191.896 130.382 186.693 145.521 177.1 157.8C177.5 158.27 177.94 158.8 178.5 159.37L178.63 159.51L178.83 159.73C179.24 160.17 179.7 160.62 180.17 161.07L180.67 161.54C181.19 162.03 181.59 162.39 181.95 162.7L182.36 163.02L182.66 163.27L182.84 163.42L182.9 163.47C189.555 155.117 194.429 145.489 197.219 135.18C200.01 124.871 200.659 114.1 199.126 103.53C197.593 92.9607 193.911 82.8174 188.306 73.726C182.702 64.6346 175.294 56.7879 166.54 50.6699L163.14 58.2199C172.043 64.7259 179.285 73.2403 184.279 83.0715C189.273 92.9026 191.877 103.773 191.88 114.8Z" fill="#E5E5E5"/>
</svg>
