<svg width="244" height="244" viewBox="0 0 244 244" fill="none" xmlns="http://www.w3.org/2000/svg">
<path d="M24.31 122.18L25.78 123.27C26.2422 123.609 26.7838 123.824 27.3528 123.894C27.9219 123.964 28.4993 123.887 29.03 123.67L45.13 117.08C45.9858 116.729 46.9116 116.584 47.8336 116.655C48.7556 116.726 49.6482 117.012 50.44 117.49L99.08 146.72C99.7997 147.153 100.606 147.422 101.442 147.508C102.277 147.594 103.122 147.494 103.914 147.216C104.707 146.938 105.429 146.489 106.028 145.9C106.627 145.311 107.088 144.598 107.38 143.81L112.46 130.1C112.969 128.726 112.931 127.209 112.354 125.861C111.778 124.514 110.706 123.44 109.36 122.86L47.77 96.4199C46.6231 95.9408 45.3558 95.8298 44.143 96.102C42.9303 96.3743 41.832 97.0165 41 97.9399L23.79 117.27C23.4828 117.618 23.2514 118.026 23.1103 118.468C22.9692 118.911 22.9216 119.378 22.9705 119.839C23.0194 120.301 23.1637 120.747 23.3943 121.15C23.6249 121.553 23.9367 121.904 24.31 122.18Z" fill="#E5E5E5"/>
<path d="M219.18 122.18L217.71 123.27C217.248 123.609 216.706 123.824 216.137 123.894C215.568 123.964 214.991 123.887 214.46 123.67L198.36 117.08C197.505 116.729 196.579 116.583 195.656 116.654C194.734 116.725 193.842 117.012 193.05 117.49L144.41 146.72C143.69 147.153 142.883 147.422 142.046 147.508C141.21 147.594 140.365 147.495 139.572 147.217C138.778 146.939 138.056 146.49 137.456 145.901C136.856 145.312 136.393 144.598 136.1 143.81L131 130.1C130.492 128.725 130.531 127.206 131.11 125.859C131.688 124.512 132.763 123.438 134.11 122.86L195.7 96.42C196.847 95.9296 198.119 95.8125 199.336 96.0853C200.552 96.3581 201.653 97.007 202.48 97.94L219.67 117.27C219.98 117.616 220.215 118.022 220.359 118.463C220.504 118.905 220.554 119.371 220.508 119.833C220.462 120.295 220.32 120.743 220.092 121.147C219.863 121.551 219.552 121.903 219.18 122.18Z" fill="#E5E5E5"/>
</svg>
