<svg width="244" height="244" viewBox="0 0 244 244" fill="none" xmlns="http://www.w3.org/2000/svg">
<path d="M78.4401 63.8501C85.3601 61.1701 104.05 54.4901 117.87 54.7301C131.87 54.9701 154.16 60.6001 162.12 62.7301C162.244 62.7515 162.371 62.7323 162.483 62.6753C162.595 62.6182 162.685 62.5265 162.74 62.4138C162.795 62.3011 162.812 62.1735 162.789 62.0503C162.766 61.927 162.703 61.8146 162.61 61.7301C156.83 57.6001 141.32 47.7301 121.91 45.3001C101.78 42.7701 83.8301 57.3801 77.8301 62.9201C77.7493 63.0155 77.7016 63.1346 77.6939 63.2594C77.6863 63.3843 77.7193 63.5082 77.7879 63.6128C77.8565 63.7174 77.957 63.797 78.0746 63.8397C78.1921 63.8825 78.3203 63.8861 78.4401 63.8501Z" fill="#E5E5E5"/>
<path d="M161.8 121.86C161.8 121.86 161.18 117.57 160.71 115.49C157.71 102.26 150.78 91.02 141.47 83.81C143.59 84.35 145.65 84.95 147.64 85.58C155.272 88.0385 161.907 92.8941 166.559 99.425C171.211 105.956 173.631 113.814 173.46 121.83C173.4 125.21 173.34 128.18 173.3 130.15C173.286 130.275 173.318 130.401 173.39 130.505C173.462 130.608 173.568 130.682 173.691 130.712C173.813 130.743 173.942 130.728 174.054 130.671C174.166 130.613 174.253 130.517 174.3 130.4C181.5 116.16 208.54 72.21 208.54 72.21C196.05 73.44 185.9 75.55 164.4 74.47C142.9 73.39 119.07 56.29 88.53 71.78C57.99 87.27 35 118.86 35 118.86L35.16 118.77C36.7093 117.851 38.4537 117.31 40.2514 117.191C42.0491 117.073 43.8493 117.38 45.5058 118.089C47.1623 118.797 48.6282 119.886 49.7845 121.268C50.9407 122.65 51.7546 124.285 52.16 126.04L59.62 158.41C59.6439 158.602 59.7431 158.777 59.896 158.896C60.0488 159.015 60.2427 159.069 60.435 159.045C60.6273 159.021 60.8022 158.922 60.9213 158.769C61.0404 158.616 61.0939 158.422 61.07 158.23L60.55 130.23C60.3862 121.579 62.7943 113.074 67.4692 105.792C72.1442 98.5111 78.8754 92.7817 86.81 89.33C77.71 99.31 72 113.71 72 129.72C72 155.72 87.07 177.45 107.24 182.91C100.39 182.16 93.47 181.27 86.93 180.34C60.16 176.54 51.82 183.23 51.82 183.23C54.99 182.96 78.15 184.93 94.25 188.23C110.35 191.53 142.17 192.66 150.42 193.01C158.67 193.36 173.53 198.52 173.53 198.52C173.205 197.198 172.609 195.959 171.78 194.88C168.61 190.2 165.16 187.06 167.2 181.79C169.66 175.45 170.31 165.63 170.49 161.37C170.493 161.274 170.462 161.179 170.403 161.103C170.344 161.026 170.261 160.972 170.167 160.95C170.073 160.928 169.975 160.938 169.888 160.98C169.801 161.022 169.731 161.093 169.69 161.18C167.31 166.29 160.36 180.11 153.43 183.18C148.43 185.45 135.21 185.32 119.91 184.08C130.28 183.32 139.7 178.34 147.02 170.53C148.867 168.559 150.555 166.446 152.07 164.21L141.07 156.01L130.65 148.27C132.515 146.249 134.023 143.926 135.11 141.4C135.2 141.19 146.49 146.2 146.49 146.2L158.35 152C159.296 149.432 160.078 146.807 160.69 144.14C160.69 144.07 160.74 143.94 160.75 143.87C161.341 141.233 161.762 138.561 162.01 135.87L149.38 133.26L137.43 130.79C137.43 130.52 137.43 130.26 137.43 129.99C137.427 127.534 137.114 125.088 136.5 122.71C136.42 122.44 136.35 122.16 136.27 121.89L161.8 121.86ZM95.48 95.34C102.96 88.34 118.92 80.18 124.24 89.26C128.82 97.09 119.01 102.85 110.18 108.88C101.92 114.52 96.6 124.96 88.72 121.24C80.22 117.23 88.07 102.31 95.48 95.34ZM93.26 156.09C93.0768 156.1 92.8932 156.1 92.71 156.09C91.0805 156.082 89.4867 155.613 88.1128 154.736C86.7389 153.86 85.6412 152.613 84.9465 151.139C84.2519 149.665 83.9888 148.024 84.1876 146.407C84.3864 144.79 85.039 143.262 86.07 142C88.61 138.95 93.21 137.67 97.74 140.32C98.6404 140.854 99.3905 141.607 99.92 142.51C103.73 149 99.35 155.71 93.26 156.09ZM99.72 162.65C101.862 161.658 103.771 160.225 105.322 158.445C106.873 156.665 108.031 154.578 108.72 152.32C110.983 153.611 113.513 154.365 116.114 154.522C118.715 154.68 121.317 154.238 123.72 153.23L135.41 162C130.49 166.29 124.217 168.71 117.69 168.836C111.164 168.962 104.802 166.786 99.72 162.69V162.65Z" fill="#E5E5E5"/>
</svg>
