<svg width="244" height="244" viewBox="0 0 244 244" fill="none" xmlns="http://www.w3.org/2000/svg">
<path d="M219.87 86.3C218.7 85.1224 217.292 84.2095 215.739 83.623C214.186 83.0365 212.526 82.7899 210.87 82.9C208.661 83.0621 206.542 83.838 204.75 85.14L168.44 110.66C162.87 101.58 152.02 95.66 137.44 94.3C133.216 93.8829 128.951 94.363 124.925 95.7089C120.9 97.0549 117.204 99.2362 114.08 102.11C108.435 107.308 104.719 114.267 103.54 121.85C99.5695 121.223 95.5316 121.145 91.54 121.62C90.3102 114.12 86.5986 107.25 81 102.11C77.6188 99.0021 73.5726 96.7071 69.17 95.4L74.57 91.61C75.3103 91.0875 76.2244 90.8724 77.12 91.01C77.8218 91.1111 78.4769 91.4213 79 91.9C79.4806 92.3583 80.0678 92.6896 80.7085 92.8642C81.3492 93.0388 82.0233 93.0511 82.67 92.9L83.19 92.76C83.8269 92.6005 84.4117 92.279 84.8878 91.8269C85.3638 91.3747 85.715 90.8072 85.9071 90.1794C86.0993 89.5516 86.126 88.8848 85.9845 88.2436C85.8431 87.6025 85.5384 87.0087 85.1 86.52C83.1783 84.4753 80.5817 83.1951 77.7896 82.9157C74.9975 82.6363 72.1987 83.3767 69.91 85L56.48 94.43C35.48 96.77 22.48 108.85 22.48 126.18C22.48 144.84 38.69 160.61 57.87 160.61C76.24 160.61 90.79 147.21 91.95 129.71C95.7048 129.206 99.516 129.304 103.24 130C104.54 147.36 119.02 160.61 137.29 160.61C156.48 160.61 172.69 144.84 172.69 126.18C172.692 123.515 172.356 120.861 171.69 118.28L209.61 91.61C210.354 91.0869 211.271 90.8719 212.17 91.01C212.848 91.1185 213.48 91.4206 213.99 91.88C214.48 92.3425 215.078 92.676 215.729 92.8506C216.38 93.0251 217.064 93.0352 217.72 92.88L218.1 92.78C218.756 92.604 219.355 92.2591 219.836 91.7798C220.318 91.3004 220.665 90.7033 220.844 90.0479C221.023 89.3925 221.028 88.7017 220.857 88.0441C220.686 87.3866 220.346 86.7853 219.87 86.3ZM38.85 143C37.4799 143 36.1406 142.594 35.0006 141.834C33.8607 141.075 32.9712 139.994 32.4442 138.73C31.9172 137.465 31.7763 136.073 32.0393 134.728C32.3022 133.383 32.9573 132.147 33.9218 131.174C34.8864 130.201 36.1174 129.535 37.4596 129.261C38.8019 128.986 40.1954 129.115 41.4645 129.631C42.7336 130.147 43.8216 131.028 44.5913 132.161C45.3611 133.294 45.7781 134.63 45.79 136C45.7979 136.916 45.6242 137.825 45.279 138.674C44.9338 139.523 44.4239 140.295 43.7786 140.946C43.1334 141.597 42.3657 142.114 41.5197 142.466C40.6738 142.819 39.7664 143 38.85 143ZM51.35 117.92C43.96 122.48 37.26 126.5 34.54 122.08C31.82 117.66 35.62 110.4 43.01 105.85C50.4 101.3 58.61 101.17 61.33 105.58C64.05 109.99 58.75 113.35 51.35 117.9V117.92ZM119.18 143C117.807 143 116.466 142.593 115.324 141.83C114.183 141.068 113.294 139.984 112.768 138.716C112.243 137.448 112.106 136.052 112.373 134.706C112.641 133.36 113.302 132.123 114.273 131.153C115.243 130.182 116.48 129.521 117.826 129.253C119.172 128.986 120.568 129.123 121.836 129.648C123.104 130.174 124.188 131.063 124.95 132.204C125.713 133.346 126.12 134.687 126.12 136.06C126.117 137.9 125.385 139.664 124.084 140.964C122.783 142.265 121.02 142.997 119.18 143ZM131.68 117.92C124.28 122.48 117.58 126.5 114.87 122.08C112.16 117.66 115.94 110.4 123.34 105.85C130.74 101.3 138.94 101.17 141.66 105.58C144.38 109.99 139.08 113.35 131.68 117.9V117.92Z" fill="#E5E5E5"/>
</svg>
