<svg width="244" height="244" viewBox="0 0 244 244" fill="none" xmlns="http://www.w3.org/2000/svg">
<path d="M121.74 93.2099C122.55 93.2055 123.342 93.4469 124.011 93.9022C124.681 94.3575 125.196 95.0053 125.49 95.7599L130.09 107.46C149.31 85.5099 158.09 66.3899 161.65 56.9499C164.72 48.7699 162.11 39.2999 154.91 34.3499L154.61 34.1499C149.88 30.9999 143.61 31.6899 138.31 33.3599C138.31 33.3599 135.31 22.4399 121.74 22.4399C108.17 22.4399 105.18 33.3599 105.18 33.3599C99.83 31.6899 93.61 30.9999 88.88 34.1499L88.58 34.3499C85.0941 36.8353 82.5373 40.4128 81.3146 44.5156C80.0919 48.6184 80.2733 53.0119 81.83 56.9999C85.37 66.4399 94.18 85.5599 113.4 107.51L118 95.8099C118.285 95.0475 118.795 94.3902 119.464 93.9256C120.132 93.461 120.926 93.2114 121.74 93.2099ZM117.15 57.3999C117.203 56.3123 117.672 55.2868 118.461 54.5357C119.249 53.7847 120.296 53.3658 121.385 53.3658C122.474 53.3658 123.521 53.7847 124.309 54.5357C125.098 55.2868 125.567 56.3123 125.62 57.3999V80.1299C125.648 80.7034 125.559 81.2765 125.359 81.8146C125.158 82.3527 124.851 82.8445 124.455 83.2602C124.059 83.676 123.583 84.0069 123.055 84.233C122.527 84.4592 121.959 84.5758 121.385 84.5758C120.811 84.5758 120.243 84.4592 119.715 84.233C119.187 84.0069 118.711 83.676 118.315 83.2602C117.919 82.8445 117.611 82.3527 117.411 81.8146C117.211 81.2765 117.122 80.7034 117.15 80.1299V57.3999Z" fill="#E5E5E5"/>
<path d="M221.94 94C217.63 81.1 206.33 81.75 206.33 81.75C206.22 76.15 204.91 70.02 200.42 66.54L200.13 66.31C193.13 61.05 183.34 61.58 176.55 67.08C168.74 73.43 153.42 87.82 138.7 112.97L147.22 113.78C148.013 113.845 148.768 114.145 149.389 114.642C150.011 115.139 150.47 115.809 150.708 116.568C150.947 117.327 150.953 118.14 150.727 118.903C150.501 119.665 150.053 120.343 149.44 120.85L141.33 127.74C169.5 139.98 191.47 142.41 201.86 142.74C210.6 143.05 218.75 137.58 221.16 129.18C221.16 129.06 221.22 128.94 221.26 128.82C222.75 123.34 220.11 117.66 216.83 113.11C216.83 113.18 226.25 106.91 221.94 94ZM190 108.77L168.45 116C167.91 116.244 167.324 116.372 166.731 116.375C166.139 116.379 165.552 116.258 165.009 116.021C164.465 115.784 163.978 115.435 163.578 114.998C163.177 114.561 162.873 114.044 162.685 113.482C162.497 112.92 162.428 112.325 162.484 111.735C162.54 111.145 162.72 110.573 163.01 110.056C163.301 109.54 163.697 109.09 164.172 108.736C164.647 108.381 165.192 108.131 165.77 108L187.32 100.8C187.856 100.578 188.431 100.468 189.011 100.478C189.591 100.488 190.163 100.617 190.69 100.857C191.218 101.097 191.691 101.443 192.08 101.874C192.468 102.304 192.764 102.81 192.949 103.36C193.134 103.909 193.204 104.491 193.154 105.069C193.105 105.646 192.937 106.208 192.661 106.718C192.386 107.228 192.008 107.676 191.552 108.035C191.096 108.393 190.571 108.653 190.01 108.8L190 108.77Z" fill="#E5E5E5"/>
<path d="M96.27 113.8L104.79 112.99C90.07 87.8399 74.79 73.4499 66.93 67.0999C60.14 61.5999 50.34 61.0999 43.36 66.3299L43.07 66.5599C38.58 70.0399 37.26 76.1699 37.15 81.7699C37.15 81.7699 25.86 81.1199 21.55 94.0199C17.24 106.92 26.65 113.18 26.65 113.18C23.37 117.73 20.74 123.41 22.23 128.89C22.23 129.01 22.3 129.13 22.33 129.25C24.74 137.65 32.89 143.12 41.62 142.81C52.02 142.43 73.98 140 102.16 127.81L94 120.87C93.3849 120.36 92.9365 119.678 92.7125 118.911C92.4886 118.144 92.4995 117.328 92.7437 116.567C92.9879 115.807 93.4544 115.136 94.0828 114.643C94.7113 114.15 95.4731 113.856 96.27 113.8ZM80.39 113.3C80.216 113.833 79.938 114.326 79.5721 114.751C79.2062 115.176 78.7597 115.524 78.2585 115.775C77.7572 116.026 77.2111 116.175 76.6518 116.214C76.0925 116.252 75.5311 116.18 75 116L53.45 108.79C52.8862 108.646 52.3582 108.388 51.8988 108.031C51.4394 107.674 51.0586 107.226 50.7801 106.715C50.5017 106.204 50.3316 105.642 50.2806 105.062C50.2295 104.483 50.2985 103.899 50.4833 103.347C50.6681 102.796 50.9647 102.288 51.3546 101.856C51.7445 101.424 52.2192 101.078 52.7492 100.838C53.2791 100.598 53.8529 100.469 54.4346 100.461C55.0163 100.453 55.5935 100.565 56.13 100.79L77.69 107.99C78.7478 108.342 79.6243 109.097 80.1296 110.091C80.635 111.085 80.7285 112.238 80.39 113.3Z" fill="#E5E5E5"/>
<path d="M103.15 152.16C102.653 152.369 102.119 152.478 101.58 152.48C100.926 152.481 100.283 152.321 99.7051 152.016C99.1275 151.71 98.6336 151.267 98.2665 150.727C97.8995 150.186 97.6705 149.564 97.5996 148.914C97.5288 148.264 97.6181 147.607 97.8599 147L101.44 137.9C74.3499 144.9 56.8999 155.21 48.8199 160.79C41.6299 165.79 38.3699 175.02 41.4499 183.19L41.5899 183.54C43.6699 188.82 49.1699 191.81 54.5199 193.54C54.5199 193.54 50.7199 204.2 61.8799 211.96C73.0399 219.72 81.7099 212.45 81.7099 212.45C85.1499 216.88 89.8599 221 95.5399 221.12H95.9099C100.179 221.065 104.309 219.59 107.648 216.928C110.986 214.267 113.344 210.57 114.35 206.42C116.85 196.59 120.57 175.66 117.21 146.37L109.09 149.76L103.15 152.16ZM97.9999 166.73L84.9999 185.39C84.6838 185.848 84.2803 186.238 83.8128 186.539C83.3452 186.84 82.8227 187.046 82.2753 187.145C81.7279 187.243 81.1665 187.233 80.6233 187.113C80.08 186.994 79.5657 186.769 79.1099 186.45C78.6534 186.133 78.2638 185.729 77.9634 185.262C77.663 184.794 77.4578 184.272 77.3593 183.725C77.2609 183.178 77.2712 182.617 77.3897 182.074C77.5082 181.531 77.7325 181.016 78.0499 180.56L91.0499 161.9C91.3671 161.44 91.7716 161.048 92.2405 160.744C92.7094 160.441 93.2334 160.233 93.7827 160.132C94.332 160.032 94.8957 160.04 95.4417 160.157C95.9877 160.274 96.5053 160.498 96.9649 160.815C97.4245 161.132 97.8172 161.537 98.1205 162.006C98.4237 162.475 98.6317 162.999 98.7324 163.548C98.8332 164.097 98.8248 164.661 98.7077 165.207C98.5906 165.753 98.3671 166.27 98.0499 166.73H97.9999Z" fill="#E5E5E5"/>
<path d="M141.91 152.48C141.37 152.48 140.836 152.372 140.34 152.16L134.4 149.68L126.27 146.29C122.92 175.58 126.64 196.51 129.13 206.34C131.29 214.81 138.83 221.09 147.57 221.04H147.94C153.62 220.92 158.34 216.8 161.77 212.37C161.77 212.37 170.44 219.64 181.6 211.88C192.76 204.12 189 193.46 189 193.46C194.34 191.78 199.85 188.79 201.93 183.46C201.93 183.34 202.02 183.23 202.06 183.11C205.15 174.94 201.89 165.68 194.69 160.71C186.61 155.13 169.17 144.86 142.08 137.82L145.66 146.92C145.92 147.533 146.022 148.202 145.958 148.865C145.894 149.528 145.666 150.165 145.293 150.717C144.921 151.27 144.416 151.72 143.825 152.028C143.234 152.336 142.576 152.491 141.91 152.48ZM152.44 161.9L165.44 180.56C166.078 181.482 166.325 182.62 166.126 183.724C165.928 184.828 165.3 185.808 164.38 186.45C163.457 187.092 162.317 187.34 161.21 187.141C160.104 186.943 159.122 186.313 158.48 185.39L145.48 166.73C144.839 165.808 144.591 164.67 144.79 163.566C144.989 162.461 145.618 161.481 146.54 160.84C147.462 160.2 148.6 159.951 149.704 160.15C150.809 160.349 151.789 160.978 152.43 161.9H152.44Z" fill="#E5E5E5"/>
</svg>
