<svg width="244" height="244" viewBox="0 0 244 244" fill="none" xmlns="http://www.w3.org/2000/svg">
<path d="M121.74 154.46C116.95 154.46 112.23 154.66 107.67 155.05L111.85 165.05C115.06 164.85 118.36 164.74 121.74 164.74C125.12 164.74 128.43 164.85 131.63 165.05L135.81 155.05C131.25 154.66 126.54 154.46 121.74 154.46Z" fill="#E5E5E5"/>
<path d="M162 160C156.902 158.379 151.686 157.152 146.4 156.33L142.31 166.14C161.03 168.77 174.14 174.86 174.14 181.96C174.14 191.46 150.66 199.15 121.7 199.15C92.74 199.15 69.3 191.47 69.3 182C69.3 174.9 82.42 168.81 101.13 166.18L97.05 156.37C91.7647 157.179 86.5494 158.392 81.45 160C62.89 166.1 59 175.31 59 182C59 188.69 62.89 197.86 81.45 203.95C92.36 207.53 106.67 209.5 121.74 209.5C136.81 209.5 151.12 207.5 162.04 203.95C180.59 197.86 184.49 188.65 184.49 182C184.49 175.35 180.59 166.1 162 160Z" fill="#E5E5E5"/>
<path d="M103.15 144.18L116.94 177.3C117.335 178.248 118.001 179.057 118.855 179.627C119.71 180.196 120.713 180.5 121.74 180.5C122.767 180.5 123.77 180.196 124.624 179.627C125.479 179.057 126.145 178.248 126.54 177.3L140.34 144.18L121.74 136.42L103.15 144.18Z" fill="#E5E5E5"/>
<path d="M88.6 139.08L99.18 134.67L119 126.4C119.874 126.035 120.813 125.848 121.76 125.85C122.711 125.849 123.652 126.036 124.53 126.4L144.32 134.67L154.9 139.08C156.201 139.64 157.638 139.8 159.03 139.541C160.422 139.282 161.705 138.615 162.717 137.624C163.729 136.634 164.424 135.365 164.712 133.979C165.001 132.593 164.872 131.152 164.34 129.84L154.2 104.07C153.65 102.681 153.548 101.155 153.906 99.7052C154.265 98.2551 155.067 96.9529 156.2 95.98L171.11 83.32C172.185 82.4048 172.966 81.1927 173.355 79.8356C173.743 78.4784 173.723 77.0367 173.296 75.6912C172.869 74.3456 172.054 73.1561 170.953 72.2717C169.853 71.3874 168.516 70.8476 167.11 70.72L144.4 68.57C143.08 68.4441 141.821 67.9551 140.762 67.1573C139.703 66.3595 138.885 65.284 138.4 64.05L128.4 38.56C127.87 37.2223 126.95 36.0747 125.76 35.2661C124.57 34.4575 123.164 34.0251 121.725 34.0251C120.286 34.0251 118.88 34.4575 117.69 35.2661C116.5 36.0747 115.58 37.2223 115.05 38.56L105 64.05C104.518 65.2859 103.701 66.3632 102.641 67.1614C101.582 67.9597 100.321 68.4474 99 68.57L76.3301 70.72C74.9241 70.8476 73.5871 71.3874 72.4867 72.2717C71.3862 73.1561 70.5714 74.3456 70.1442 75.6912C69.717 77.0367 69.6966 78.4784 70.0855 79.8356C70.4743 81.1927 71.2551 82.4048 72.3301 83.32L87.27 96C88.4072 96.9702 89.2118 98.2724 89.5705 99.7235C89.9293 101.175 89.8242 102.702 89.27 104.09L79.17 129.84C78.7432 130.926 78.587 132.1 78.7152 133.26C78.8433 134.42 79.2518 135.531 79.9055 136.498C80.5592 137.464 81.4383 138.257 82.467 138.808C83.4957 139.359 84.6431 139.652 85.81 139.66C86.7697 139.657 87.7189 139.46 88.6 139.08Z" fill="#E5E5E5"/>
</svg>
