<svg width="244" height="244" viewBox="0 0 244 244" fill="none" xmlns="http://www.w3.org/2000/svg">
<g clip-path="url(#clip0_1_506)">
<path d="M69.63 159.34C69.7253 159.802 69.7103 160.28 69.5863 160.735C69.4622 161.19 69.2325 161.61 68.9159 161.96C68.5993 162.309 68.2046 162.58 67.764 162.748C67.3234 162.917 66.8492 162.979 66.38 162.93C57.66 162.12 38.26 158.64 37.3 143.77C36.06 124.56 43.3 94.45 69.54 79.99C95.78 65.53 117.23 76.42 117.23 76.42C117.23 76.42 149.86 61.78 175.88 91.52C199.3 118.28 197.46 139.19 205.74 150.33C206.039 150.735 206.231 151.209 206.299 151.708C206.367 152.207 206.308 152.715 206.127 153.186C205.947 153.656 205.651 154.073 205.267 154.399C204.883 154.725 204.423 154.949 203.93 155.05C195.36 156.98 177.49 159.11 164.15 147.9L164.77 149.51C164.979 150.031 165.037 150.6 164.939 151.153C164.84 151.705 164.588 152.219 164.212 152.636C163.836 153.052 163.351 153.355 162.811 153.51C162.272 153.664 161.7 153.664 161.16 153.51C155.99 152.13 148.41 149.3 143.62 143.88C143.129 145.128 142.829 146.443 142.73 147.78C142.704 148.302 142.541 148.809 142.258 149.249C141.976 149.689 141.583 150.048 141.119 150.289C140.655 150.531 140.136 150.647 139.614 150.626C139.091 150.605 138.583 150.448 138.14 150.17C135.542 148.704 133.212 146.807 131.25 144.56C131.197 146.374 131.237 148.19 131.37 150C131.436 150.582 131.331 151.171 131.066 151.694C130.801 152.217 130.39 152.651 129.881 152.942C129.373 153.234 128.79 153.37 128.205 153.334C127.62 153.298 127.059 153.091 126.59 152.74C121.087 148.757 116.01 144.217 111.44 139.19C111.44 139.19 107.44 145.62 110.57 155.83C110.753 156.381 110.772 156.974 110.625 157.536C110.478 158.098 110.171 158.605 109.741 158.996C109.311 159.387 108.777 159.645 108.203 159.738C107.63 159.831 107.041 159.755 106.51 159.52C101.94 157.69 95.73 153.72 91 145.18C90.2389 149.122 89.7511 153.111 89.54 157.12C89.5359 157.686 89.3717 158.239 89.0665 158.716C88.7612 159.193 88.3272 159.574 87.8148 159.814C87.3023 160.055 86.7323 160.145 86.1705 160.076C85.6087 160.006 85.0781 159.779 84.64 159.42C80.28 156.03 74.27 150.52 70.76 143.74C70.76 143.77 67.39 148.15 69.63 159.34Z" fill="#E5E5E5"/>
</g>
<defs>
<clipPath id="clip0_1_506">
<rect width="243.49" height="243.49" fill="white"/>
</clipPath>
</defs>
</svg>
