<svg width="244" height="244" viewBox="0 0 244 244" fill="none" xmlns="http://www.w3.org/2000/svg">
<path d="M102.3 95.55C100.72 78.55 97.5999 54.23 95.4299 37.98C95.2412 36.5608 94.6296 35.2313 93.6747 34.1645C92.7198 33.0977 91.4659 32.3431 90.0762 31.9989C88.6865 31.6547 87.2253 31.7369 85.8829 32.2347C84.5406 32.7325 83.3792 33.6229 82.5499 34.79C64.0699 60.84 29.9999 116 55.1799 138.06C54.2151 139.657 53.7003 141.485 53.6899 143.35V154.82C53.6971 156.459 54.0912 158.073 54.8401 159.531C55.5891 160.989 56.6717 162.25 57.9999 163.21C55.564 167.9 54.311 173.115 54.3499 178.4C54.3499 188.75 64.1599 203.18 69.3499 210.11C69.7166 210.602 70.1932 211.002 70.7419 211.278C71.2905 211.553 71.896 211.697 72.5099 211.697C73.1238 211.697 73.7292 211.553 74.2779 211.278C74.8265 211.002 75.3032 210.602 75.6699 210.11C80.8799 203.18 90.6699 188.75 90.6699 178.4C90.7075 173.113 89.4473 167.897 86.9999 163.21C88.3256 162.249 89.4052 160.987 90.1507 159.529C90.8963 158.071 91.2866 156.458 91.2899 154.82V143.6C102.58 135.09 104 113.37 102.3 95.55Z" fill="#E5E5E5"/>
<path d="M160.94 34.7901C160.109 33.6225 158.946 32.7322 157.602 32.2354C156.258 31.7385 154.796 31.6581 153.406 32.0046C152.015 32.3511 150.762 33.1084 149.808 34.1779C148.855 35.2473 148.245 36.5793 148.06 38.0001C145.88 54.2501 142.76 78.5801 141.19 95.5701C139.54 113.39 140.91 135.11 152.19 143.62V154.84C152.194 156.477 152.583 158.089 153.327 159.547C154.07 161.005 155.147 162.266 156.47 163.23C154.034 167.92 152.781 173.135 152.82 178.42C152.82 188.77 162.63 203.2 167.82 210.13C168.187 210.622 168.663 211.022 169.212 211.298C169.761 211.573 170.366 211.717 170.98 211.717C171.594 211.717 172.199 211.573 172.748 211.298C173.297 211.022 173.773 210.622 174.14 210.13C179.35 203.2 189.14 188.77 189.14 178.42C189.181 173.134 187.924 167.918 185.48 163.23C186.806 162.269 187.885 161.007 188.631 159.549C189.376 158.091 189.767 156.478 189.77 154.84V143.35C189.76 141.485 189.245 139.657 188.28 138.06C213.47 116 179.42 60.8401 160.94 34.7901Z" fill="#E5E5E5"/>
</svg>
