<svg width="244" height="244" viewBox="0 0 244 244" fill="none" xmlns="http://www.w3.org/2000/svg">
<path d="M79.1001 162.8C74.1896 163.126 69.2579 162.735 64.4601 161.64C64.4572 150.735 67.6107 140.062 73.5401 130.91C79.9951 131.975 86.621 130.851 92.3627 127.715C98.1045 124.578 102.632 119.612 105.224 113.605C107.816 107.598 108.325 100.896 106.667 94.5674C105.01 88.2384 101.283 82.6457 96.0801 78.6799C100.18 74.4899 107.22 68.0099 110.7 62.5599C119.7 48.5599 118.7 31.7199 107.17 26.1499C95.6401 20.5799 84.1701 25.4099 75.5901 35.0699C67.0101 44.7299 69.4601 58.0699 69.4601 58.0699C69.4601 58.0699 64.2601 47.4899 59.4601 42.2799C54.6601 37.0699 32.6801 30.7999 23.9401 47.6999C15.2001 64.5999 27.1101 77.8899 36.3901 79.9999C42.9115 81.4105 49.5502 82.2106 56.2201 82.3899C51.2762 87.8607 48.5901 95.0022 48.7033 102.375C48.8165 109.748 51.7206 116.804 56.8301 122.12C49.6001 125.82 35.0001 135.83 39.9401 155.32C40.8256 159.138 42.5318 162.718 44.9401 165.81C44.7601 174.17 46.0701 181.98 48.6601 187.63C53.5201 198.25 54.7901 209.81 55.0601 216.99C55.0791 217.533 55.2556 218.059 55.5681 218.503C55.8807 218.947 56.3158 219.291 56.8203 219.493C57.3249 219.694 57.8772 219.744 58.4098 219.637C58.9424 219.53 59.4324 219.271 59.8201 218.89C65.8162 213.239 72.2754 208.101 79.1301 203.53C79.4558 203.311 79.7316 203.025 79.9395 202.692C80.1473 202.359 80.2826 201.986 80.3364 201.597C80.3902 201.209 80.3613 200.813 80.2517 200.436C80.142 200.059 79.954 199.709 79.7001 199.41C73.9093 192.709 69.5196 184.915 66.7901 176.49C73.8701 178.14 80.9301 179.76 86.2201 184.49C90.7001 188.49 93.8001 191.25 95.9401 193.22C96.4231 193.665 97.0119 193.979 97.6506 194.133C98.2893 194.286 98.9566 194.273 99.589 194.096C100.221 193.918 100.798 193.582 101.264 193.119C101.729 192.656 102.069 192.081 102.25 191.45C103.7 186.45 106.25 179.57 110.44 174.25C111.057 173.461 111.34 172.462 111.228 171.467C111.116 170.472 110.617 169.561 109.84 168.93C106.16 165.9 97.6401 161.88 79.1001 162.8ZM102 40.5799C115.21 42.9699 86.8001 66.4699 86.8001 66.4699C86.8001 66.4699 84.9101 37.4899 102 40.5799ZM45.0501 68.41C37.3801 68.7299 30.1801 64.0699 32.9901 56.2499C38.5901 40.6899 56.8401 72.3399 56.8401 72.3399C56.8401 72.3399 54.1101 68 45.0501 68.41ZM60.7101 87.8499C64.7101 82.8499 71.2601 81.3699 75.4201 84.6399C79.5801 87.9099 79.7301 94.6399 75.7601 99.6399C71.7901 104.64 65.2101 106.12 61.0501 102.85C56.8901 99.5799 56.7401 92.8999 60.7101 87.8499ZM59.6301 113.15C59.6281 112.376 59.856 111.618 60.2848 110.974C60.7137 110.329 61.3243 109.827 62.0391 109.53C62.754 109.232 63.541 109.154 64.3004 109.305C65.0598 109.455 65.7574 109.828 66.3048 110.375C66.8523 110.923 67.2249 111.62 67.3754 112.38C67.526 113.139 67.4477 113.926 67.1505 114.641C66.8533 115.356 66.3506 115.966 65.7061 116.395C65.0616 116.824 64.3042 117.052 63.5301 117.05C62.4965 117.047 61.5061 116.636 60.7753 115.905C60.0444 115.174 59.6327 114.183 59.6301 113.15Z" fill="#E5E5E5"/>
<path d="M136.9 168.89C136.123 169.521 135.624 170.432 135.512 171.427C135.4 172.422 135.683 173.422 136.3 174.21C140.46 179.53 143.04 186.45 144.49 191.41C144.673 192.042 145.014 192.616 145.48 193.079C145.947 193.542 146.524 193.878 147.157 194.055C147.79 194.232 148.458 194.245 149.097 194.092C149.737 193.939 150.326 193.625 150.81 193.18C152.95 191.18 156.04 188.41 160.52 184.45C165.81 179.76 172.87 178.14 179.95 176.45C177.213 184.893 172.81 192.701 167 199.41C166.748 199.71 166.561 200.06 166.452 200.436C166.343 200.813 166.315 201.208 166.369 201.597C166.422 201.985 166.557 202.358 166.764 202.691C166.971 203.024 167.246 203.31 167.57 203.53C174.428 208.101 180.891 213.239 186.89 218.89C187.278 219.267 187.767 219.524 188.298 219.629C188.829 219.735 189.379 219.683 189.882 219.482C190.385 219.281 190.818 218.939 191.13 218.497C191.442 218.054 191.619 217.531 191.64 216.99C191.91 209.81 193.18 198.25 198.05 187.63C200.63 181.98 201.94 174.17 201.77 165.81C204.18 162.719 205.886 159.139 206.77 155.32C211.71 135.83 197.11 125.82 189.88 122.15C194.996 116.837 197.905 109.78 198.018 102.405C198.131 95.0305 195.441 87.8876 190.49 82.4201C197.184 82.2352 203.847 81.425 210.39 80.0001C219.67 77.8601 231.57 64.5801 222.84 47.6701C214.11 30.7601 192.18 37.0801 187.35 42.2801C182.52 47.4801 177.35 58.0701 177.35 58.0701C177.35 58.0701 179.77 44.7001 171.22 35.0701C162.67 25.4401 151.16 20.5801 139.64 26.1501C128.12 31.7201 127.15 48.5301 136.11 62.5601C139.56 68.0001 146.6 74.4901 150.7 78.6801C145.382 82.5911 141.547 88.1891 139.82 94.5605C138.094 100.932 138.578 107.7 141.193 113.761C143.809 119.822 148.402 124.818 154.222 127.932C160.042 131.047 166.746 132.096 173.24 130.91C179.174 140.06 182.328 150.734 182.32 161.64C177.522 162.736 172.591 163.127 167.68 162.8C149.14 161.88 140.62 165.9 136.9 168.89ZM160 66.4701C160 66.4701 131.6 43.0001 144.81 40.5801C161.87 37.4901 160 66.4701 160 66.4701ZM189.93 72.3401C189.93 72.3401 208.18 40.6901 213.78 56.2501C216.59 64.0701 209.39 68.7301 201.72 68.4101C192.67 68.0001 189.94 72.3401 189.94 72.3401H189.93ZM185.72 102.9C181.56 106.17 174.98 104.74 171.01 99.6901C167.04 94.6401 167.2 87.9101 171.35 84.6901C175.5 81.4701 182.1 82.8601 186.06 87.9001C190.02 92.9401 189.89 99.6301 185.73 102.9H185.72ZM183.24 117.05C182.466 117.052 181.709 116.824 181.064 116.395C180.42 115.966 179.917 115.356 179.62 114.641C179.322 113.926 179.244 113.139 179.395 112.38C179.545 111.62 179.918 110.923 180.465 110.375C181.013 109.828 181.71 109.455 182.47 109.305C183.229 109.154 184.016 109.232 184.731 109.53C185.446 109.827 186.056 110.33 186.485 110.974C186.914 111.619 187.142 112.376 187.14 113.15C187.137 114.182 186.727 115.171 185.998 115.901C185.27 116.632 184.282 117.045 183.25 117.05H183.24Z" fill="#E5E5E5"/>
</svg>
