<svg width="244" height="244" viewBox="0 0 244 244" fill="none" xmlns="http://www.w3.org/2000/svg">
<path d="M206.69 180.34C206.69 180.34 191.41 169.86 190.1 164.18C190.1 164.18 201.61 165.52 206.41 162.03C206.41 162.03 185.63 139.59 182.68 98.6C181.53 82.6 182.74 49.75 156.15 35.73C139.06 26.73 127.84 27.49 122.01 29.19C118.862 30.11 115.517 30.11 112.37 29.19C106.54 27.49 95.37 26.72 78.24 35.73C51.64 49.73 52.85 82.63 51.71 98.6C48.76 139.59 28 162 28 162C32.8 165.49 44.31 164.15 44.31 164.15C43 169.83 27.72 180.31 27.72 180.31C32.53 189.48 56.1 182.2 56.1 182.2L42.1 201.2C63.93 230.89 117.19 204.69 117.19 204.69C117.19 204.69 170.46 230.89 192.29 201.2L178.29 182.2C178.29 182.2 201.89 189.51 206.69 180.34Z" fill="#E5E5E5"/>
</svg>
