<svg width="244" height="244" viewBox="0 0 244 244" fill="none" xmlns="http://www.w3.org/2000/svg">
<path d="M92.1601 158.2L91.0001 149.92L87.9001 128.5C87.563 126.174 86.4367 124.035 84.7101 122.44C84.094 121.825 83.7 121.023 83.5901 120.16L71.8101 39.1C71.6245 37.8289 70.9422 36.6833 69.913 35.9146C68.8837 35.146 67.5916 34.8171 66.3201 35L64.6701 35.24C64.0397 35.3319 63.4336 35.547 62.8863 35.8731C62.3391 36.1992 61.8615 36.63 61.4807 37.1407C61.1 37.6515 60.8236 38.2322 60.6673 38.8498C60.5111 39.4674 60.478 40.1097 60.5701 40.74L72.1101 120.42C69.5213 120.933 67.2283 122.421 65.7043 124.576C64.1804 126.731 63.5417 129.388 63.9201 132L64.2401 134.16L62.2901 134.44C59.7607 134.806 57.3283 135.667 55.1318 136.974C52.9352 138.28 51.0174 140.006 49.488 142.054C47.9586 144.101 46.8475 146.43 46.2182 148.907C45.5888 151.384 45.4535 153.961 45.8201 156.49L49.2601 180.2C49.6263 182.729 50.4872 185.162 51.7936 187.358C53.0999 189.555 54.8262 191.473 56.8738 193.002C58.9213 194.531 61.2501 195.643 63.7271 196.272C66.2041 196.901 68.7808 197.037 71.3101 196.67L73.2501 196.39L73.7401 199.73C73.9336 201.071 74.3896 202.361 75.082 203.526C75.7744 204.691 76.6896 205.708 77.7754 206.518C78.8611 207.329 80.096 207.918 81.4094 208.251C82.7229 208.584 84.0891 208.655 85.4301 208.46C89.0673 207.933 92.3462 205.983 94.5459 203.039C96.7456 200.095 97.6859 196.397 97.1601 192.76L92.1601 158.2Z" fill="#E5E5E5"/>
<path d="M181.2 134.41L179.25 134.13L179.56 131.97C179.935 129.361 179.295 126.707 177.771 124.556C176.247 122.405 173.956 120.921 171.37 120.41L182.92 40.73C183.103 39.4573 182.774 38.1639 182.006 37.1331C181.238 36.1022 180.092 35.4179 178.82 35.23L177.17 35C175.897 34.8171 174.603 35.1474 173.574 35.9182C172.544 36.6889 171.863 37.837 171.68 39.11L159.93 120.17C159.828 121.036 159.433 121.84 158.81 122.45C157.086 124.045 155.964 126.185 155.63 128.51L149.39 171.6L149.09 173.6L146.33 192.69C146.068 194.491 146.164 196.326 146.612 198.09C147.06 199.855 147.851 201.513 148.941 202.971C150.03 204.429 151.396 205.658 152.961 206.588C154.526 207.518 156.258 208.13 158.06 208.39C159.401 208.585 160.767 208.514 162.081 208.181C163.394 207.848 164.629 207.259 165.715 206.448C166.8 205.637 167.716 204.621 168.408 203.456C169.1 202.291 169.556 201.001 169.75 199.66L170.23 196.32L172.23 196.6C177.33 197.326 182.51 196 186.634 192.912C190.758 189.825 193.49 185.228 194.23 180.13L197.67 156.42C198.396 151.319 197.07 146.137 193.983 142.012C190.896 137.886 186.299 135.153 181.2 134.41Z" fill="#E5E5E5"/>
<path d="M187.38 100.11C185.71 100.108 184.077 100.602 182.687 101.528C181.298 102.455 180.214 103.773 179.574 105.316C178.934 106.858 178.766 108.556 179.092 110.194C179.417 111.832 180.221 113.337 181.402 114.518C182.583 115.699 184.088 116.503 185.726 116.828C187.364 117.154 189.062 116.986 190.604 116.346C192.147 115.706 193.465 114.622 194.392 113.233C195.318 111.843 195.812 110.21 195.81 108.54C195.81 106.304 194.922 104.16 193.341 102.579C191.76 100.998 189.616 100.11 187.38 100.11Z" fill="#E5E5E5"/>
<path d="M54.0901 117.06L62.0901 114.16C62.4513 114.029 62.7745 113.811 63.031 113.525C63.2875 113.24 63.4694 112.895 63.5605 112.522C63.6515 112.148 63.6489 111.759 63.5529 111.387C63.4569 111.015 63.2704 110.672 63.0101 110.39L55.2401 102C54.9518 101.685 54.5767 101.463 54.1623 101.362C53.7478 101.26 53.3126 101.283 52.9114 101.429C52.5102 101.574 52.1612 101.836 51.9082 102.179C51.6553 102.523 51.5098 102.934 51.4901 103.36L51.0001 114.76C50.9841 115.139 51.0611 115.517 51.2244 115.86C51.3876 116.203 51.6322 116.501 51.9368 116.727C52.2415 116.954 52.5969 117.103 52.9722 117.161C53.3475 117.219 53.7313 117.184 54.0901 117.06Z" fill="#E5E5E5"/>
<path d="M143.21 85.29L132.49 84.29C131.867 84.2284 131.273 83.996 130.774 83.6184C130.274 83.2408 129.889 82.7326 129.66 82.15L124.92 70.15C124.673 69.5153 124.24 68.9701 123.678 68.5856C123.116 68.2012 122.451 67.9955 121.77 67.9955C121.089 67.9955 120.424 68.2012 119.862 68.5856C119.3 68.9701 118.867 69.5153 118.62 70.15L113.89 82.15C113.66 82.732 113.274 83.2396 112.775 83.617C112.276 83.9945 111.683 84.2273 111.06 84.29L100.33 85.29C99.6686 85.3553 99.0411 85.6135 98.5253 86.0326C98.0096 86.4517 97.6284 87.0132 97.4292 87.6471C97.2299 88.2811 97.2214 88.9597 97.4047 89.5984C97.5879 90.2372 97.9549 90.8081 98.46 91.24L105.46 97.24C106.005 97.6924 106.394 98.3042 106.574 98.9893C106.753 99.6745 106.713 100.399 106.46 101.06L101.67 113.23C101.468 113.743 101.395 114.297 101.456 114.845C101.517 115.392 101.71 115.917 102.019 116.373C102.329 116.829 102.744 117.203 103.231 117.462C103.717 117.721 104.259 117.858 104.81 117.86C105.264 117.86 105.713 117.768 106.13 117.59L111.13 115.5L120.48 111.6C120.894 111.429 121.337 111.34 121.785 111.34C122.233 111.34 122.676 111.429 123.09 111.6L132.43 115.5L137.43 117.59C137.847 117.769 138.296 117.861 138.75 117.86C139.3 117.856 139.841 117.718 140.326 117.458C140.811 117.198 141.225 116.824 141.533 116.369C141.842 115.913 142.034 115.389 142.094 114.842C142.155 114.295 142.081 113.742 141.88 113.23L137.09 101C136.834 100.339 136.792 99.614 136.972 98.9282C137.151 98.2423 137.543 97.6306 138.09 97.18L145.09 91.18C145.58 90.7455 145.933 90.1781 146.107 89.5466C146.281 88.9151 146.267 88.2467 146.068 87.6228C145.869 86.9988 145.493 86.4462 144.985 86.0321C144.478 85.6179 143.861 85.3601 143.21 85.29Z" fill="#E5E5E5"/>
</svg>
