<svg width="244" height="244" viewBox="0 0 244 244" fill="none" xmlns="http://www.w3.org/2000/svg">
<path d="M140.1 84.6999C139.66 80.1367 137.537 75.9008 134.143 72.8185C130.75 69.7361 126.329 68.0284 121.745 68.0284C117.161 68.0284 112.741 69.7361 109.347 72.8185C105.953 75.9008 103.83 80.1367 103.39 84.6999C103.33 85.2813 103.3 85.8655 103.3 86.4499C103.412 91.2675 105.405 95.85 108.852 99.2175C112.299 102.585 116.926 104.47 121.745 104.47C126.564 104.47 131.192 102.585 134.638 99.2175C138.085 95.85 140.078 91.2675 140.19 86.4499C140.19 85.8599 140.15 85.2799 140.1 84.6999ZM120.54 85.0699C118.76 88.1699 115.15 89.4199 112.48 87.8899C109.81 86.3599 109.1 82.5899 110.88 79.4999C112.66 76.4099 116.28 75.1399 118.95 76.6799C121.62 78.2199 122.33 81.9999 120.54 85.0699Z" fill="#E5E5E5"/>
<path d="M121.74 147.61C160.57 147.61 194.39 158.31 212.01 174.11C216.92 178.51 223.9 171.32 219.24 166.66C217.921 165.363 216.393 164.298 214.72 163.51L214.31 163.31C213.629 162.997 213.093 162.435 212.812 161.74C212.532 161.045 212.527 160.268 212.8 159.57C213.428 158.001 213.592 156.285 213.273 154.626C212.954 152.967 212.165 151.434 211 150.21C206.884 145.953 203.652 140.923 201.491 135.41C199.33 129.897 198.283 124.01 198.41 118.09C198.42 117.763 198.357 117.438 198.225 117.139C198.093 116.84 197.895 116.575 197.646 116.363C197.397 116.15 197.104 115.997 196.788 115.913C196.472 115.83 196.141 115.818 195.82 115.88C189.93 117.04 176.59 117.88 176.99 101.67C177.002 101.319 176.929 100.97 176.778 100.652C176.627 100.335 176.402 100.059 176.121 99.847C175.841 99.6352 175.513 99.494 175.167 99.4353C174.82 99.3767 174.464 99.4023 174.13 99.51C169.13 101.17 158.95 102.71 151.29 92.31C151.164 92.131 150.988 91.9933 150.784 91.914C150.58 91.8347 150.357 91.8175 150.144 91.8645C149.93 91.9116 149.735 92.0207 149.583 92.1782C149.431 92.3358 149.329 92.5347 149.29 92.75C147.863 98.9975 144.358 104.576 139.347 108.571C134.337 112.566 128.118 114.742 121.71 114.742C115.302 114.742 109.083 112.566 104.073 108.571C99.0622 104.576 95.5566 98.9975 94.1299 92.75C94.0952 92.5317 93.9956 92.3289 93.8439 92.1681C93.6923 92.0072 93.4958 91.8958 93.2799 91.8483C93.064 91.8008 92.8388 91.8195 92.6337 91.9018C92.4286 91.9842 92.253 92.1264 92.1299 92.31C84.4699 102.71 74.3199 101.17 69.2799 99.51C68.9459 99.4018 68.5906 99.3759 68.2444 99.4345C67.8982 99.4931 67.5713 99.6345 67.2914 99.8466C67.0116 100.059 66.7871 100.335 66.6371 100.653C66.4871 100.97 66.416 101.319 66.4299 101.67C66.8199 117.88 53.4299 117.04 47.5899 115.88C47.2691 115.82 46.9389 115.833 46.6236 115.917C46.3084 116.002 46.0159 116.155 45.7676 116.367C45.5194 116.579 45.3216 116.844 45.1888 117.142C45.0559 117.44 44.9914 117.764 44.9999 118.09C45.1294 124.01 44.0833 129.898 41.9223 135.411C39.7612 140.925 36.528 145.955 32.4099 150.21C31.2454 151.434 30.4575 152.968 30.1401 154.627C29.8228 156.287 29.9893 158.002 30.6199 159.57C30.8925 160.268 30.888 161.045 30.6074 161.74C30.3267 162.435 29.791 162.997 29.1099 163.31L28.6899 163.51C27.0197 164.298 25.4949 165.363 24.1799 166.66C19.5099 171.32 26.4899 178.51 31.3999 174.11C49.0999 158.31 82.9099 147.61 121.74 147.61Z" fill="#E5E5E5"/>
</svg>
