<svg width="244" height="244" viewBox="0 0 244 244" fill="none" xmlns="http://www.w3.org/2000/svg">
<path d="M24.42 110.52C24.2516 111.128 24.2122 111.764 24.3045 112.388C24.3968 113.012 24.6187 113.61 24.9559 114.143C25.2931 114.676 25.7381 115.133 26.2624 115.484C26.7867 115.835 27.3786 116.072 28 116.18C28.91 116.34 30 116.51 31.11 116.68C34.9987 117.237 38.6628 118.841 41.71 121.32C50.58 128.54 57.18 134.83 59.83 138.56L60.29 139.21C66.48 147.96 80.98 168.45 121.52 168.61H122C162.53 168.45 177 147.96 183.22 139.21L183.69 138.55C187.3 133.46 196.59 125.55 201.8 121.32C204.847 118.84 208.511 117.236 212.4 116.68C213.56 116.51 214.6 116.34 215.51 116.18C216.13 116.073 216.721 115.837 217.244 115.488C217.767 115.139 218.212 114.684 218.549 114.153C218.886 113.622 219.109 113.026 219.202 112.404C219.295 111.781 219.257 111.147 219.09 110.54C218.806 109.453 218.121 108.513 217.174 107.909C216.226 107.304 215.086 107.08 213.98 107.28C211.93 107.64 209.73 107.94 207.45 108.2C204.613 108.529 201.745 107.959 199.25 106.57C191.68 102.4 179.87 93.48 172.93 86.68C164.77 78.68 148.59 69.85 137.49 78.34C130.58 83.61 112.94 83.61 106.03 78.34C94.93 69.85 78.75 78.68 70.59 86.68C62.5962 94.2702 53.778 100.942 44.3 106.57C41.7971 107.957 38.923 108.527 36.08 108.2C33.73 107.94 31.49 107.62 29.42 107.26C29.1628 107.212 28.9017 107.188 28.64 107.19C27.6657 107.194 26.7206 107.524 25.9558 108.127C25.1909 108.731 24.6502 109.573 24.42 110.52ZM60.91 106.41C66.5052 102.305 71.8482 97.8671 76.91 93.12C82.85 87.31 94.47 80.86 100.57 85.51C104.52 88.51 111.4 92.11 121.77 92.11C132.14 92.11 139.02 88.52 142.97 85.51C149.06 80.86 160.69 87.3 166.63 93.12C171.692 97.8671 177.035 102.305 182.63 106.41L186.31 109.13L181.74 108.94C178.48 108.79 175.18 108.57 171.9 108.27C148.25 106.1 127.9 105.89 122.26 105.87H121.84C117.84 105.87 96.55 105.99 71.68 108.27C68.45 108.56 65.14 108.79 61.85 108.93L57.26 109.14L60.91 106.41ZM55.71 118.14C61.15 118.07 66.78 117.77 72.45 117.25C96.93 115.01 118.2 114.89 122.22 114.89C127.76 114.89 147.63 115.11 171.03 117.25C176.7 117.77 182.34 118.07 187.77 118.14H191.4L188.68 120.54C182.79 125.74 178.63 130.03 176.31 133.29L175.84 133.96C169.98 142.24 157.84 159.47 121.75 159.55C85.69 159.51 73.5 142.28 67.64 134L67.17 133.32C64.85 130.07 60.69 125.78 54.8 120.58L52.08 118.18L55.71 118.14Z" fill="#E5E5E5"/>
</svg>
