<svg width="244" height="244" viewBox="0 0 244 244" fill="none" xmlns="http://www.w3.org/2000/svg">
<path d="M139.38 156.05L139.91 155.69C140.361 155.382 140.732 154.971 140.992 154.492C141.252 154.012 141.394 153.477 141.405 152.931C141.417 152.385 141.298 151.845 141.059 151.354C140.82 150.863 140.467 150.437 140.03 150.11C139.458 149.674 138.762 149.431 138.043 149.417C137.324 149.403 136.619 149.617 136.03 150.03C133.27 151.98 128.27 153.67 121.73 153.67C115.19 153.67 110.21 152 107.45 150C106.86 149.59 106.155 149.377 105.437 149.392C104.719 149.406 104.023 149.647 103.45 150.08C103.015 150.408 102.664 150.835 102.426 151.325C102.188 151.816 102.07 152.356 102.082 152.901C102.093 153.446 102.234 153.98 102.493 154.46C102.752 154.94 103.121 155.351 103.57 155.66L104.1 156.02L102.5 157.92C101.912 158.619 101.627 159.522 101.705 160.432C101.784 161.342 102.221 162.183 102.92 162.77C103.619 163.358 104.522 163.643 105.432 163.565C106.341 163.486 107.182 163.049 107.77 162.35L110.63 158.95C113.129 159.698 115.7 160.181 118.3 160.39V165.02C118.3 165.932 118.662 166.807 119.307 167.453C119.953 168.098 120.828 168.46 121.74 168.46C122.653 168.46 123.529 168.098 124.176 167.453C124.823 166.808 125.187 165.933 125.19 165.02V160.39C127.79 160.181 130.361 159.698 132.86 158.95L135.71 162.35C136.32 162.931 137.122 163.268 137.963 163.299C138.805 163.329 139.629 163.051 140.28 162.516C140.93 161.981 141.363 161.226 141.496 160.394C141.628 159.563 141.452 158.711 141 158L139.38 156.05Z" fill="#E5E5E5"/>
<path d="M223.24 117.73L219.16 111.57L216.16 107.01C215.506 106.034 215.157 104.885 215.16 103.71V93.85C215.157 90.672 214.936 87.4979 214.5 84.35C214.38 83.44 214.23 82.53 214.07 81.62C214.07 81.47 214.02 81.33 213.99 81.19C213.843 80.3566 213.673 79.5266 213.48 78.7C213.43 78.48 213.39 78.26 213.33 78.04C213.16 77.27 212.96 76.5 212.76 75.75C212.68 75.46 212.61 75.18 212.53 74.9C212.33 74.19 212.12 73.48 211.89 72.78C211.79 72.45 211.68 72.13 211.57 71.78C211.35 71.1133 211.12 70.4466 210.88 69.78C210.75 69.41 210.61 69.06 210.47 68.69C210.23 68.07 209.99 67.45 209.73 66.84C209.57 66.45 209.39 66.06 209.22 65.68C208.96 65.09 208.71 64.51 208.43 63.93C208.25 63.53 208.05 63.15 207.85 62.76C207.57 62.19 207.29 61.62 206.99 61.05C203.794 55.035 199.753 49.5089 194.99 44.64C194.57 44.2 194.12 43.79 193.69 43.36C191.075 40.8177 188.27 38.4777 185.3 36.36L184.99 36.13C184.44 35.74 183.88 35.37 183.32 35L182.32 34.35C181.84 34.04 181.32 33.74 180.86 33.44C180.4 33.14 179.98 32.92 179.54 32.66L178.23 32C177.63 31.67 177.01 31.36 176.4 31.05L175.52 30.59C167.89 26.8627 159.626 24.6067 151.16 23.94C150.42 23.88 149.67 23.83 148.92 23.8C148.17 23.77 147.15 23.72 146.26 23.71H145.78C144.67 23.71 143.56 23.71 142.46 23.79L141.3 23.87L139.18 24.03L137.77 24.19C137.17 24.26 136.57 24.33 135.97 24.42L134.44 24.65L132.84 24.94C132.29 25.04 131.74 25.15 131.2 25.27L129.8 25.59C129.22 25.73 128.63 25.86 128.05 26.02L127.05 26.3C125.46 26.75 123.89 27.24 122.34 27.8L121.07 28.28L119.77 28.8C118.037 29.4666 116.347 30.2333 114.7 31.1C106.409 35.2641 99.0318 41.0401 93.0001 48.09L91.8601 48.52L90.5601 49.03C89.8001 49.34 89.0801 49.71 88.3401 50.03C87.3401 50.46 86.4201 50.86 85.4901 51.32C82.4829 52.8479 79.5888 54.589 76.8301 56.53C75.7401 57.3 74.6601 58.08 73.6201 58.91C72.7601 59.59 71.9401 60.31 71.1201 61.02C70.7901 61.31 70.4401 61.58 70.1201 61.88C69.1201 62.76 68.2101 63.68 67.2801 64.61C67.1401 64.76 66.9801 64.9 66.8401 65.05C65.8401 66.05 64.8401 67.16 63.9201 68.26L63.7801 68.41C63.6501 68.57 63.5301 68.74 63.3901 68.9L63.1601 68.99L61.8501 69.5C60.1301 70.1666 58.4434 70.9366 56.7901 71.81C43.3302 78.5796 32.4414 89.5489 25.7713 103.058C19.1011 116.568 17.0126 131.882 19.8216 146.684C22.6306 161.487 30.1844 174.971 41.34 185.098C52.4956 195.224 66.6459 201.442 81.6501 202.81C82.8445 207.655 85.626 211.961 89.5513 215.042C93.4767 218.122 98.3201 219.801 103.31 219.81H142.46C146.378 219.805 150.135 218.246 152.905 215.475C155.676 212.705 157.235 208.948 157.24 205.03V199.32H171.16C173.104 199.329 175.03 198.955 176.829 198.218C178.628 197.481 180.264 196.396 181.642 195.026C183.021 193.656 184.116 192.027 184.863 190.232C185.611 188.438 185.997 186.514 186 184.57V179.06H200.39C204.308 179.055 208.065 177.496 210.835 174.725C213.606 171.955 215.165 168.198 215.17 164.28V133.42C216.97 133.365 218.723 132.829 220.247 131.869C221.77 130.909 223.01 129.558 223.836 127.958C224.662 126.357 225.045 124.565 224.946 122.767C224.846 120.969 224.268 119.229 223.27 117.73H223.24ZM160.47 151.11L158.26 147.78C157.609 146.799 157.261 145.648 157.26 144.47V139.53L179.07 113.86V124C179.082 125.467 179.346 126.922 179.85 128.3L160.47 151.11ZM156.61 125.11C156.48 124.19 156.33 123.28 156.17 122.37C156.17 122.23 156.17 122.09 156.1 121.94C155.95 121.11 155.77 120.29 155.59 119.46L155.44 118.79C155.26 118.03 155.07 117.26 154.87 116.5L154.63 115.66C154.45 114.99 154.25 114.32 154.04 113.66L174.21 89.92C175.732 93.558 176.907 97.3313 177.72 101.19L156.72 125.94C156.66 125.67 156.65 125.39 156.61 125.12V125.11ZM150 103.57C149.72 103 149.44 102.42 149.14 101.86C147.843 99.4454 146.408 97.1082 144.84 94.86L163.62 72.75C165.838 75.3451 167.845 78.114 169.62 81.03L150.16 104L150 103.57ZM137.09 85.44L135.79 84.17C134.57 82.98 133.31 81.86 132.03 80.77L149.33 60.41C152.045 62.1359 154.626 64.0647 157.05 66.18L139 87.49C138.33 86.81 137.74 86.11 137.09 85.44ZM124.43 75.14C123.95 74.83 123.43 74.52 122.97 74.23C122.51 73.94 122.09 73.7 121.64 73.45C121.19 73.2 120.79 72.96 120.36 72.72C119.76 72.39 119.14 72.07 118.53 71.72L117.65 71.27C116.99 70.95 116.31 70.7 115.65 70.4L130.86 52.51C134.337 53.369 137.731 54.5369 141 56L124.6 75.25L124.43 75.14ZM106.43 67.04C102.741 66.0059 98.9708 65.2867 95.1601 64.89L106.39 51.68C109.771 51.1178 113.193 50.8335 116.62 50.83H117C118 50.83 119 50.83 120.06 50.93L106.43 67.04ZM80.5301 62.34C82.0501 61.26 83.6201 60.26 85.2401 59.34C86.7501 58.45 88.3001 57.62 89.9001 56.87L83.3001 64.64L82.5101 64.7L81.3201 64.79C80.8501 64.79 80.3801 64.89 79.9101 64.95L79.3401 65.02L78.1101 65.18L76.6201 65.4L80.5301 62.34ZM150.39 205.05C150.39 207.143 149.559 209.149 148.079 210.629C146.599 212.109 144.593 212.94 142.5 212.94H103.34C99.2478 212.94 95.3231 211.314 92.4294 208.421C89.5357 205.527 87.9101 201.602 87.9101 197.51C87.9101 197.177 87.7791 196.857 87.5452 196.619C87.3113 196.381 86.9934 196.245 86.6601 196.24C71.1913 195.944 56.3831 189.917 45.1039 179.327C33.8246 168.736 26.8772 154.337 25.6074 138.918C24.3376 123.498 28.8358 108.156 38.2306 95.8638C47.6254 83.5713 61.2482 75.203 76.4601 72.38C76.4601 72.52 76.3501 72.66 76.3101 72.81L76.7201 72.33C77.7201 72.15 78.7201 71.99 79.7201 71.86C82.4185 71.4996 85.1377 71.3159 87.8601 71.31H88.2901H89.6101C93.5868 71.4161 97.5431 71.9186 101.42 72.81C108.005 74.3442 114.295 76.9452 120.04 80.51C122.684 82.1529 125.205 83.9878 127.58 86C138.048 94.7958 145.428 106.71 148.64 120C149.693 124.388 150.266 128.878 150.35 133.39C150.35 133.79 150.35 134.19 150.35 134.59V144.45C150.402 146.972 151.146 149.431 152.5 151.56L155.8 156.56L159.6 162.29C159.922 162.776 160.107 163.34 160.133 163.922C160.16 164.504 160.029 165.082 159.752 165.596C159.476 166.109 159.066 166.537 158.566 166.836C158.065 167.134 157.493 167.291 156.91 167.29H154.2C153.179 167.29 152.2 167.696 151.478 168.418C150.756 169.14 150.35 170.119 150.35 171.14V177.22L149.97 177.68L150.35 177.81V205.03L150.39 205.05ZM179.09 179.21V184.57C179.09 186.663 178.259 188.669 176.779 190.149C175.299 191.629 173.293 192.46 171.2 192.46H162.2L173.46 179.21L173.59 179.06L179.13 172.53V179.21H179.09ZM185.65 146.83H182.94C181.919 146.83 180.94 147.236 180.218 147.958C179.496 148.68 179.09 149.659 179.09 150.68V158.26L161.43 179.06L161.3 179.21L157.3 183.95V174.19C159.03 174.133 160.715 173.632 162.195 172.736C163.676 171.839 164.9 170.577 165.752 169.071C166.603 167.565 167.053 165.865 167.058 164.134C167.063 162.404 166.623 160.701 165.78 159.19L184.92 136.65L188.36 141.84C188.677 142.328 188.857 142.893 188.879 143.475C188.902 144.057 188.766 144.635 188.488 145.146C188.209 145.657 187.797 146.084 187.296 146.38C186.795 146.677 186.222 146.832 185.64 146.83H185.65Z" fill="#E5E5E5"/>
</svg>
