<svg width="244" height="244" viewBox="0 0 244 244" fill="none" xmlns="http://www.w3.org/2000/svg">
<path d="M62.39 215.32L81.39 207.41L116.85 192.61C118.417 191.957 120.098 191.62 121.795 191.62C123.493 191.62 125.173 191.957 126.74 192.61L162.2 207.41L181.15 215.32C182.734 215.98 184.434 216.32 186.15 216.32C188.232 216.298 190.278 215.77 192.112 214.783C193.946 213.796 195.512 212.379 196.678 210.653C197.843 208.927 198.572 206.944 198.802 204.874C199.033 202.805 198.757 200.71 198 198.77L179.84 152.6C178.859 150.109 178.682 147.372 179.335 144.775C179.987 142.178 181.437 139.851 183.48 138.12L210.17 115.45C212.094 113.814 213.493 111.648 214.192 109.221C214.892 106.795 214.861 104.216 214.103 101.807C213.346 99.3981 211.895 97.2657 209.933 95.6763C207.971 94.0869 205.584 93.1108 203.07 92.8701L162.39 89C160.028 88.7769 157.774 87.9038 155.878 86.4775C153.983 85.0512 152.519 83.1276 151.65 80.92L133.65 35.26C132.706 32.8595 131.062 30.7988 128.93 29.3464C126.799 27.894 124.279 27.1172 121.7 27.1172C119.121 27.1172 116.601 27.894 114.47 29.3464C112.338 30.7988 110.694 32.8595 109.75 35.26L91.75 80.92C90.8851 83.1131 89.4345 85.0264 87.5564 86.4513C85.6783 87.8761 83.445 88.7578 81.1 89L40.42 92.8701C37.9055 93.1091 35.5172 94.0839 33.5535 95.6727C31.5899 97.2615 30.138 99.3937 29.3794 101.803C28.6208 104.212 28.589 106.792 29.2881 109.219C29.9872 111.646 31.3861 113.813 33.31 115.45L60 138.12C62.0405 139.853 63.4884 142.18 64.141 144.777C64.7937 147.373 64.6185 150.108 63.64 152.6L45.49 198.77C44.7274 200.714 44.4492 202.814 44.6796 204.89C44.9099 206.966 45.6419 208.954 46.8122 210.683C47.9826 212.413 49.5563 213.832 51.3974 214.817C53.2385 215.803 55.2918 216.325 57.38 216.34C59.1011 216.335 60.804 215.988 62.39 215.32Z" fill="#E5E5E5"/>
<path d="M61.6999 80.63C71.5085 80.63 79.4599 72.6786 79.4599 62.87C79.4599 53.0614 71.5085 45.11 61.6999 45.11C51.8914 45.11 43.9399 53.0614 43.9399 62.87C43.9399 72.6786 51.8914 80.63 61.6999 80.63Z" fill="#E5E5E5"/>
<path d="M204.08 154.58C209.398 154.58 213.71 150.269 213.71 144.95C213.71 139.632 209.398 135.32 204.08 135.32C198.761 135.32 194.45 139.632 194.45 144.95C194.45 150.269 198.761 154.58 204.08 154.58Z" fill="#E5E5E5"/>
<path d="M37.3 182.9C41.4697 182.9 44.85 179.52 44.85 175.35C44.85 171.18 41.4697 167.8 37.3 167.8C33.1302 167.8 29.75 171.18 29.75 175.35C29.75 179.52 33.1302 182.9 37.3 182.9Z" fill="#E5E5E5"/>
<path d="M182.22 75.64C194.061 75.64 203.66 66.041 203.66 54.2C203.66 42.359 194.061 32.76 182.22 32.76C170.379 32.76 160.78 42.359 160.78 54.2C160.78 66.041 170.379 75.64 182.22 75.64Z" fill="#E5E5E5"/>
</svg>
