<svg width="244" height="244" viewBox="0 0 244 244" fill="none" xmlns="http://www.w3.org/2000/svg">
<path d="M173.92 174C173.92 169.79 172.08 165.81 168.8 162.25C167.071 154.784 163.99 147.697 159.71 141.34C149.38 125.53 150.63 122.87 159.93 109.56C172.62 91.38 170.1 64 170 62.88L169.87 61.55C170.24 60.76 172.78 56.01 172.78 53.49C172.78 40.75 149.94 30.42 121.78 30.42C93.6201 30.42 70.7801 40.75 70.7801 53.49C70.7801 56.01 73.3201 60.76 73.6901 61.55L73.5601 62.88C73.4501 64.04 70.9201 91.38 83.5601 109.54C92.8601 122.85 94.1101 125.54 83.7801 141.32C79.5024 147.677 76.4249 154.764 74.7001 162.23C71.4201 165.79 69.5801 169.77 69.5801 173.98C69.5801 174.17 66.3701 180.81 66.3701 184.21C66.3701 200.14 91.1601 213.06 121.75 213.06C152.34 213.06 177.14 200.14 177.14 184.21C177.13 180.81 173.92 174.17 173.92 174ZM107.48 65.05C108.623 65.1912 109.675 65.7445 110.439 66.6061C111.203 67.4677 111.627 68.5785 111.63 69.73V70.28C111.635 70.96 111.494 71.6331 111.215 72.2535C110.937 72.8738 110.528 73.4268 110.016 73.8748C109.505 74.3228 108.903 74.6552 108.251 74.8494C107.599 75.0436 106.913 75.0949 106.24 75C99.7299 74.1404 93.3493 72.4882 87.2401 70.08C86.3833 69.7216 85.6522 69.1169 85.1395 68.3424C84.6267 67.568 84.3555 66.6588 84.3601 65.73C84.3595 65.0371 84.5168 64.3531 84.8201 63.73C85.318 62.6768 86.1879 61.8448 87.2624 61.3944C88.3368 60.9439 89.5399 60.9068 90.6401 61.29C93.5367 62.2749 96.4884 63.0896 99.4801 63.73C102.06 64.23 104.72 64.69 107.48 65.05ZM90.5501 145.75C102.82 126.96 101.31 120.82 90.1901 104.9C83.4701 95.3 81.7201 82.28 81.3901 73.46C89.9501 79.46 104.82 83.4 121.74 83.4C138.66 83.4 153.54 79.4 162.1 73.46C161.76 82.28 160.01 95.3 153.3 104.9C142.18 120.82 140.66 126.96 152.94 145.75C154.718 148.467 156.286 151.315 157.63 154.27C161.82 163.55 162.04 170.72 161.68 174.53C161.495 176.628 160.667 178.619 159.31 180.23C155.57 184.64 145.31 193 121.74 193C98.1701 193 87.9201 184.64 84.1701 180.23C82.8162 178.618 81.9921 176.627 81.8101 174.53C81.4501 170.72 81.6601 163.53 85.8101 154.27C87.1664 151.311 88.7512 148.463 90.5501 145.75Z" fill="#E5E5E5"/>
<path d="M121.74 185.19C139.15 185.19 153.27 178.7 153.27 170.69C153.27 164.1 143.6 166.06 138.57 159.12C135.4 154.75 133.43 150.33 130.77 147.22C129.664 145.902 128.283 144.842 126.724 144.115C125.165 143.388 123.465 143.011 121.745 143.011C120.025 143.011 118.325 143.388 116.766 144.115C115.207 144.842 113.826 145.902 112.72 147.22C110.05 150.33 108.09 154.75 104.92 159.12C99.92 166.06 90.22 164.12 90.22 170.69C90.22 178.7 104.33 185.19 121.74 185.19Z" fill="#E5E5E5"/>
<path d="M121.77 119.88C134.85 119.88 138.05 109.17 145.48 97.9899C145.604 97.8106 145.668 97.5973 145.665 97.3796C145.662 97.162 145.591 96.9506 145.463 96.7749C145.334 96.5991 145.154 96.4677 144.948 96.3987C144.741 96.3298 144.518 96.3267 144.31 96.3899C134.372 99.2897 123.914 99.9488 113.69 98.3199L98.8101 95.94C98.6096 95.9177 98.407 95.9531 98.226 96.0419C98.045 96.1308 97.893 96.2694 97.788 96.4416C97.683 96.6138 97.6293 96.8124 97.6333 97.014C97.6372 97.2156 97.6985 97.412 97.8101 97.58C105.41 108.9 108.52 119.88 121.77 119.88Z" fill="#E5E5E5"/>
<path d="M121.74 136.59C124.905 136.59 127.47 134.025 127.47 130.86C127.47 127.695 124.905 125.13 121.74 125.13C118.575 125.13 116.01 127.695 116.01 130.86C116.01 134.025 118.575 136.59 121.74 136.59Z" fill="#E5E5E5"/>
</svg>
