<svg width="237" height="237" viewBox="0 0 237 237" fill="none" xmlns="http://www.w3.org/2000/svg">
<g clip-path="url(#clip0_103_1314)">
<path d="M88.875 118.5C107.934 118.5 123.438 102.996 123.438 83.9375C123.438 64.8788 107.934 49.375 88.875 49.375C69.8163 49.375 54.3125 64.8788 54.3125 83.9375C54.3125 102.996 69.8163 118.5 88.875 118.5ZM88.875 69.125C97.0712 69.125 103.688 75.7413 103.688 83.9375C103.688 92.1337 97.0712 98.75 88.875 98.75C80.6788 98.75 74.0625 92.1337 74.0625 83.9375C74.0625 75.7413 80.6788 69.125 88.875 69.125ZM88.875 135.781C65.7675 135.781 19.75 147.335 19.75 170.344V177.75C19.75 183.181 24.1937 187.625 29.625 187.625H148.125C153.556 187.625 158 183.181 158 177.75V170.344C158 147.335 111.982 135.781 88.875 135.781ZM42.8575 167.875C51.1525 162.148 71.1988 155.531 88.875 155.531C106.551 155.531 126.597 162.148 134.892 167.875H42.8575ZM158.395 136.374C169.85 144.669 177.75 155.729 177.75 170.344V187.625H207.375C212.806 187.625 217.25 183.181 217.25 177.75V170.344C217.25 150.396 182.688 139.04 158.395 136.374ZM148.125 118.5C167.184 118.5 182.688 102.996 182.688 83.9375C182.688 64.8788 167.184 49.375 148.125 49.375C142.792 49.375 137.855 50.6587 133.312 52.8312C139.534 61.62 143.188 72.3838 143.188 83.9375C143.188 95.4912 139.534 106.255 133.312 115.044C137.855 117.216 142.792 118.5 148.125 118.5Z" fill="#FAFAFA"/>
</g>
<defs>
<clipPath id="clip0_103_1314">
<rect width="237" height="237" fill="white"/>
</clipPath>
</defs>
</svg>
